<svg enable-background="new 0 0 351 328" viewBox="0 0 351 328" xmlns="http://www.w3.org/2000/svg"><path d="m311 156.9c-.5-23.7-8.1-47.2-23.1-67.2-23.7-31.7-55.6-47.9-95.2-48.9-1.4 0-2.8.2-4.1.8-3.3 1.4-5.2 5.1-4.5 8.4.7 3.7 3.7 6.2 7.5 6.6 7.3.7 14.7.9 21.8 2.4 19.5 4 36.4 13.2 50.6 27.1 15.2 14.9 25.1 32.9 29.1 53.8 1.3 6.5 1.5 13.3 2.1 20 .4 4.6 3.6 7.9 8 7.9s7.7-3.4 7.9-8c-.1-.9-.1-1.9-.1-2.9zm-31.8-1.2c-1.2-18.1-6.9-34.5-18.1-48.8-17.4-22.3-40.5-33.5-68.7-34.3-3.5-.1-6.5 1.9-7.8 4.9-2.1 5.2 1.5 10.7 7.4 10.9 9.1.3 17.9 1.7 26.3 5.2 21.6 9.1 35.9 24.8 42.3 47.3 1.7 6.1 2 12.7 2.7 19 .5 4.7 3.8 8 8.2 7.9s7.7-3.7 7.7-8.4c0-1.3 0-2.5 0-3.7zm-31.7 2.6c-1-16.9-7.6-30.7-20.4-41.3-10-8.4-21.8-12.4-34.8-12.7-4.3-.1-7.7 2.9-8.3 7-.5 3.8 2.1 7.6 5.9 8.6 1.2.3 2.4.2 3.7.3 14 1 24.8 7.3 32.2 19.2 3.9 6.2 5.6 13 5.8 20.3.1 4.4 3.2 7.7 7.3 8 3.9.3 7.5-2.3 8.3-6.2.3-1.1.2-2.4.3-3.2zm-31.8 1.3c-.2-12.8-10.6-23.3-23.5-23.6-4.3-.1-7.9 3.2-8.2 7.4-.3 4.1 2.7 7.8 6.8 8.4 6.8 1 8 2.2 9.1 9.1.7 4.3 4.4 7.2 8.6 6.8 4.2-.3 7.2-3.8 7.2-8.1z" fill="#fff"/><path d="m39.9 100.6c.9-5.6 1.5-11.3 2.7-16.9 2.2-10.5 6.7-19.8 14.7-27.2 3.4-3.1 6.4-6.6 9.9-9.6 10.3-8.6 23.2-8.2 32.7 1.2 14.9 14.6 29.7 29.4 44.4 44.4 10 10.2 9.7 24.3-.3 34.5-3.8 3.9-7.9 7.6-11.4 11.7-8.7 10.2-8.2 23.4 1.3 32.9 15.3 15.4 30.8 30.6 46.4 45.7 10.3 10 24.3 9.7 34.6-.3 3.3-3.3 6.6-6.6 9.9-9.9 10.3-10.1 24.4-10.3 34.7-.2 14.8 14.5 29.5 29.2 44 44 9.7 9.8 10.2 23 1.1 33.3-5 5.7-10.5 11.1-16.4 15.7-8.7 6.9-19.2 9.3-30 10.7-3.6.5-7.2.7-10.7 1.1-3.7 0-7.4 0-11.1 0-.7-.1-1.4-.3-2.1-.4-17.8-.8-35.1-4.5-51.9-10.3-44.9-15.4-80.7-42.8-106.9-82.3-19.3-29.1-31.1-61-34.7-95.9-.2-2.2-.6-4.3-.9-6.5 0-5.1 0-10.4 0-15.7zm21.5-23.3c-.3.6-.5 1.2-.8 1.7-4.6 11.7-5.3 24-4.6 36.4 1.3 22.1 7 43.1 15.7 63.3 17 39.1 43.5 69.8 80.4 91.3 25.8 15 53.6 24 83.6 25.7 10.7.6 21.3-.1 31.7-3.2 2.5-.7 4.8-1.8 7-2.7-18.7-18.7-37.1-37.1-55.6-55.6-16.1 10.2-36.6 7.5-49.7-5.4-15.6-15.5-31.4-30.8-46.9-46.3-9.9-10-13.5-22.2-10.8-35.9 1-4.9 3.3-9.6 4.9-14.2-18-18.1-36.3-36.5-54.9-55.1zm226.4 201.9c1.2-1.3 2.5-2.8 3.9-4.3 4.6-4.7 4.6-8.8 0-13.5-10.3-10.3-20.6-20.6-30.9-30.9-4.1-4.1-8.2-8.3-12.4-12.3-4-3.9-8.3-3.9-12.4 0-1.7 1.6-3.4 3.1-4.8 4.4 19 19 37.6 37.7 56.6 56.6zm-215.7-214.9 56.2 56.2c1.2-1.2 2.5-2.7 3.8-4 4.9-5 4.9-9 .1-13.9-14.2-14.1-28.3-28.3-42.5-42.4-.6-.6-1.3-1.3-2-1.8-3.1-2.3-6.9-2.3-9.8.1-2 1.8-3.9 3.9-5.8 5.8z"/><path d="m311 156.9v2.9c-.2 4.6-3.5 7.9-7.9 8-4.4 0-7.6-3.3-8-7.9-.6-6.7-.8-13.4-2.1-20-4-20.9-13.9-38.9-29.1-53.8-14.2-13.9-31.1-23.1-50.6-27.1-7.1-1.5-14.5-1.7-21.8-2.4-3.9-.4-6.9-2.9-7.5-6.6-.6-3.4 1.3-7.1 4.5-8.4 1.3-.5 2.7-.8 4.1-.8 39.6 1 71.5 17.2 95.2 48.9 15.1 20 22.7 43.5 23.2 67.2z"/><path d="m279.2 155.7v3.7c0 4.7-3.2 8.3-7.7 8.4s-7.7-3.2-8.2-7.9c-.7-6.4-1-12.9-2.7-19-6.4-22.5-20.7-38.2-42.3-47.3-8.4-3.5-17.2-4.9-26.3-5.2-5.9-.2-9.6-5.7-7.4-10.9 1.2-3 4.2-5 7.8-4.9 28.2.8 51.3 12 68.7 34.3 11.2 14.3 17 30.7 18.1 48.8z"/><path d="m247.5 158.3c-.1.8 0 2.1-.2 3.3-.8 3.9-4.4 6.5-8.3 6.2-4.1-.3-7.2-3.5-7.3-8-.2-7.3-1.9-14.1-5.8-20.3-7.4-11.9-18.3-18.2-32.2-19.2-1.2-.1-2.5 0-3.7-.3-3.8-.9-6.4-4.7-5.9-8.6.5-4.1 3.9-7.1 8.3-7 13 .2 24.8 4.3 34.8 12.7 12.6 10.5 19.3 24.2 20.3 41.2z"/><path d="m215.7 159.6c.1 4.2-3 7.7-7.1 8.1-4.2.4-8-2.5-8.6-6.8-1.1-6.9-2.3-8-9.1-9.1-4.1-.6-7.1-4.3-6.8-8.4.3-4.2 3.9-7.5 8.2-7.4 12.7.4 23.2 10.9 23.4 23.6z"/></svg>