<svg enable-background="new 0 0 351 328" viewBox="0 0 351 328" xmlns="http://www.w3.org/2000/svg"><path d="m56.8 192h41.2c5.2 0 8.3-3.8 7.4-8.5-.7-3.4-3.5-5.4-7.9-5.4-15.7 0-31.4 0-47.1 0-11.6 0-23.1 0-34.7 0-3.4 0-6 1.2-7.3 4.4-2 4.8 1.4 9.5 7.2 9.5zm7-42h9.8c8.3 0 16.6.1 24.9-.1 5.6-.1 8.8-5.4 6.3-10.1-1.6-3-4.2-3.8-7.4-3.8-22.5 0-45 0-67.5 0-.8 0-1.5 0-2.3.1-3.3.6-5.7 3.3-5.8 6.6-.1 2.9 1.8 6 4.6 6.8 1.3.4 2.8.4 4.2.4 11.1.1 22.1.1 33.2.1zm6.7-42h27.2c2.9 0 5.4-.8 6.9-3.4 2.9-4.9-.7-10.5-6.8-10.5-17.9-.1-35.8 0-53.7 0-5.3 0-8.4 2.7-8.3 7.1 0 4.3 3 6.8 8.2 6.9 8.9-.1 17.7-.1 26.5-.1z" fill="#fff"/><path d="m343.2 172.8c-1.5 7.6-3.1 15.1-4.5 22.7-2 10.6-3.9 21.3-5.9 31.9-.9 4.6-3.2 6.5-7.9 6.6-3.4 0-6.7 0-10 0-7.2 19.1-18.4 28.1-34.6 28-16.1-.1-27.6-9.3-34.4-28-.9 0-2 0-3.1 0-26.2 0-52.4 0-78.6-.1-2.5 0-3.5.8-4.2 3.2-4.5 15-18.1 25-33.6 24.9-15.3-.1-29-10.4-33.3-25.3-.7-2.3-1.7-2.8-3.9-2.8-5.9.1-11.8.1-17.7 0-4.7 0-7.9-2.9-7.8-6.9 0-4.1 3.2-6.9 7.9-7h20.6c.6-1.8 1-3.3 1.5-4.9 5.1-14 18.8-23.5 33.3-23.2 15.3.4 28.4 10.1 32.8 24.7.8 2.8 2 3.5 4.7 3.4 10.9-.1 21.8-.1 33.2-.1 10.6-46.5 21.2-93 31.9-139.9-1.9 0-3.3 0-4.7 0-50.3 0-100.6 0-151 0-1.6 0-3.3 0-4.9-.4-3.1-.7-5.3-3.5-5.3-6.6s2.1-5.9 5.2-6.7c1.3-.3 2.6-.4 3.9-.4h163.4c7.4 0 10.1 3.5 8.5 10.7-2.3 10.3-4.7 20.6-7.1 31.3h4.2c14.8.1 29.7-.4 44.5.5 28.1 1.8 52.4 25.2 56.2 53.2.1 1.1.4 2.1.7 3.1zm-108.7-50.7c-7.4 32.7-14.8 65.2-22.2 97.9h17.1 16.5c4.3-17.7 18.6-27.7 33.9-28 12.3-.2 29 6.5 34.8 27.8h5.3c2.3-12.4 4.7-24.6 6.9-36.8 1-5.5 2.7-11.1 2.3-16.4-2-25.1-22.6-44-47.8-44.4-13.4-.2-26.8-.1-40.3-.1-2.1 0-4.1 0-6.5 0zm45.7 84c-11.6 0-20.9 9.4-20.9 21.1.1 11.4 9.5 20.8 20.9 20.9 11.5.1 21-9.5 21-21 .1-11.7-9.3-21-21-21zm-132.8 21.1c0-11.9-9.1-21.1-20.8-21-11.6 0-20.8 9.2-20.8 20.8 0 11.8 9.3 21.2 20.9 21.1 11.5-.1 20.7-9.4 20.7-20.9z"/><path d="m56.8 192c-13.7 0-27.5 0-41.2 0-5.8 0-9.2-4.7-7.2-9.5 1.4-3.2 4-4.4 7.3-4.4h34.7 47.1c4.3 0 7.2 2 7.9 5.4 1 4.7-2.2 8.5-7.4 8.5-13.7 0-27.4 0-41.2 0z"/><path d="m63.8 150c-11 0-22 0-33.1 0-1.4 0-2.9 0-4.2-.4-2.8-.8-4.8-3.9-4.6-6.8.2-3.3 2.6-6 5.8-6.6.7-.1 1.5-.1 2.3-.1h67.5c3.2 0 5.8.9 7.4 3.8 2.5 4.7-.8 10-6.3 10.1-8.3.1-16.6 0-24.9.1-3.4-.1-6.7-.1-9.9-.1z"/><path d="m70.5 108c-8.8 0-17.7 0-26.5 0-5.2 0-8.1-2.5-8.2-6.9 0-4.4 3.1-7.1 8.3-7.1h53.7c6.1 0 9.7 5.6 6.8 10.5-1.6 2.6-4 3.5-6.9 3.4-9.1.1-18.1.1-27.2.1z"/></svg>