<svg enable-background="new 0 0 351 328" viewBox="0 0 351 328" xmlns="http://www.w3.org/2000/svg"><path d="m212.1 13c5.7 1.3 11.6 2.2 17.1 4.1 31.4 11 50.1 42.6 45 75.5-2.4 15.2-9.3 28-20.1 38.8-38.6 38.7-77.1 77.5-115.8 116.1-23.7 23.6-58.4 27.5-86.9 9.9-22.5-13.9-35.2-42.1-30.9-68.3 2.5-15.5 9.5-28.5 20.6-39.5 18.3-18.2 36.5-36.4 54.7-54.6 20.2-20.2 40.3-40.3 60.5-60.5 10.1-10.1 21.9-17.1 36-20 2.5-.5 4.9-1 7.4-1.5h12.4zm-108.7 94.2c-9.6 9.6-19.3 19.2-28.9 28.9-9.2 9.3-18.8 18.2-27.5 28-22.1 24.6-15.5 65.3 13 82.1 22.7 13.4 49.6 9.9 68.4-8.9 17-16.9 33.9-33.9 50.8-50.9.6-.6 1.1-1.3 1.7-1.9-25.7-25.9-51.5-51.5-77.5-77.3zm10.7-10.5c25.9 25.9 51.6 51.5 77.3 77.3.3-.3.8-.6 1.2-1 17.4-17.4 34.8-34.8 52.1-52.2 8.6-8.6 13.6-19 15.5-31.1 3.6-22.5-9.1-46.7-29.8-56.6-22-10.5-46.1-6.4-63.6 10.9-17.1 17-34.1 34.1-51.1 51.1-.6.5-1.1 1-1.6 1.6z"/><path d="m321.8 252.5c-1.3 5.5-2.1 11.2-4 16.5-10.7 31-41.5 49.7-74 45.3-31.5-4.3-56.4-30.5-58.9-61.9-2.7-34.6 19.8-65.3 53.7-73.1 27.6-6.4 57.9 6.5 72.6 30.7 5.3 8.8 8.8 18.2 10 28.4.1.6.4 1.1.5 1.6.1 4.3.1 8.4.1 12.5zm-101.2 37.2c20.1 16.2 53.4 15.6 73.7-7.4 19.1-21.7 16.1-52.3 2.1-68.4-25.3 25.2-50.5 50.4-75.8 75.8zm-10.8-10.7c25.4-25.4 50.7-50.6 76-75.8-18.8-15.1-50-15.6-70.7 4.6-19.3 18.8-21.7 51-5.3 71.2z"/><path d="m160.5 101.5c-3-.6-5-1.8-6.2-4.2-1.2-2.3-1.1-4.7.3-7 .4-.7.9-1.3 1.5-1.8 7.8-7.7 15.5-15.4 23.3-22.9 3.4-3.3 7.7-3.3 10.5-.4 2.7 2.9 2.6 7-.6 10.3-7.8 7.9-15.8 15.7-23.8 23.3-1.3 1.3-3.3 1.8-5 2.7z"/></svg>