<svg enable-background="new 0 0 351 328" viewBox="0 0 351 328" xmlns="http://www.w3.org/2000/svg"><circle cx="175.5" cy="164" fill="#fb8a01" r="146.5"/><g fill="#fff"><path d="m271.1 231.4c-.2.5-.5 1-.7 1.5-1.6 3.6-4.2 5.6-8.2 6-.6 0-1.1 0-1.7 0-45.5 0-91.1 0-136.6 0-2.3 0-4.5-.3-6.5-1.7-2.8-2-4.1-4.8-4.1-8.2 0-6.1 0-12.2 0-18.3 0-.7 0-1.3 0-2.2-2.5.3-4.9.6-7.2.9-7.4 1.2-11.8-2.2-12.7-9.6-2-15.4-4.1-30.8-6.1-46.3-1.7-13.2-3.5-26.3-5.2-39.5-.7-5.4 2.9-10 8.4-10.7 13.2-1.8 26.3-3.5 39.5-5.2 13.5-1.8 27.1-3.6 40.6-5.4 13.4-1.8 26.8-3.5 40.2-5.3 5.2-.7 10.4-1.3 15.5-2.1 6.9-1 11.4 2.5 12.3 9.4 1.5 12.3 3.2 24.5 4.9 37h2 13.7c7.1 0 9.2 1.4 12 7.8-.1 30.5-.1 61.2-.1 91.9zm-79 1.1h68c3.8 0 4.7-.9 4.7-4.7 0-28.4 0-56.8 0-85.1 0-3.9-.9-4.8-4.8-4.8-45.2 0-90.4 0-135.6 0-3.8 0-4.8.9-4.8 4.8v85.1c0 3.7.9 4.7 4.7 4.7zm-102.6-110c48-6.4 95.9-12.7 143.8-19.1-.4-2.6-.7-5.1-1-7.6-.5-4.1-1.6-4.8-5.6-4.3-8.8 1.2-17.7 2.4-26.5 3.5-13.5 1.8-26.9 3.6-40.4 5.4s-26.9 3.6-40.4 5.4c-9.3 1.2-18.7 2.5-28 3.7-2.1.3-3.4 1.6-3.2 3.6.4 3 .9 6 1.3 9.4zm144.7-12.8c-48 6.4-95.9 12.7-143.8 19.1.6 4.3 1.1 8.3 1.7 12.5 7-.9 13.9-1.8 20.7-2.7.5-.1 1.1-.5 1.4-1 2-4.2 5.3-5.9 9.8-5.9h39.2c.7 0 1.5 0 2.2-.1 21.3-2.8 42.7-5.6 64-8.5 2.2-.3 4.3-.6 6.6-1-.8-4.2-1.3-8.2-1.8-12.4zm-121 92.4c0-19.1 0-38.1 0-57.3-6.8.9-13.6 1.8-20.3 2.7.1 1 .1 1.7.2 2.3 2.2 16.5 4.4 33 6.6 49.6.4 3.3 1.6 4.3 4.9 3.9 2.8-.4 5.6-.8 8.6-1.2zm123.4-73.7c-7.5 1-14.8 2-22.1 2.9v.2h22.6c-.2-1-.3-2-.5-3.1z"/><path d="m192.2 194.7h55.2c3.9 0 4.8.9 4.8 4.8v15.9c0 3.5-1 4.6-4.5 4.6-37 0-74 0-111 0-3.5 0-4.5-1-4.5-4.5 0-5.4 0-10.7 0-16.1 0-3.7 1-4.6 4.7-4.6 18.5-.1 36.9-.1 55.3-.1zm-53.5 6.4v12.4h107c0-4.2 0-8.3 0-12.4-35.7 0-71.3 0-107 0z"/><path d="m223.7 175.9c-7.4 8.6-18 7.3-23.5 1.9-6.3-6.1-6.6-16-.8-22.1 5.7-6 16.6-7.8 24.3 1.2 3.5-4.2 8-6.5 13.5-6.2 4.2.2 7.8 1.9 10.7 5.1 5.5 6 5.3 15.8-.2 21.5-5.3 5.4-16.1 7.5-24-1.4zm-3.2-9.7c0-5.2-4.2-9.4-9.4-9.4s-9.5 4.4-9.5 9.5c.1 5.1 4.3 9.3 9.4 9.3 5.4.1 9.6-4.1 9.5-9.4zm15.6 9.5c5.2.2 9.6-4 9.7-9.3.1-5.1-4-9.4-9.2-9.6-5.1-.2-9.5 4-9.7 9.3-.1 5.2 4 9.5 9.2 9.6z"/><path d="m132.3 172.5c0-2 0-4 0-6h50.3v6c-16.7 0-33.4 0-50.3 0z"/><path d="m145 153.8h37.7v6.1c-12.5 0-25 0-37.7 0 0-2 0-3.9 0-6.1z"/><path d="m138.5 153.9v6c-2 0-4 0-6.1 0 0-2 0-3.9 0-6z"/></g></svg>