<svg enable-background="new 0 0 351 328" viewBox="0 0 351 328" xmlns="http://www.w3.org/2000/svg"><path d="m334.7 132.2c-1.1 6.2-1.9 12.5-3.4 18.6-3.9 16.1-11.8 30.4-21.7 43.6-15.2 20.4-33.7 37.6-52.8 54.2-22.5 19.6-45.1 39-67.7 58.5-8.7 7.5-18 7.8-26.4.5-29.4-25.5-58.9-50.9-88-76.8-14.9-13.3-28.4-28.2-39.3-45.1-19.5-30.4-24.8-62.8-12.4-96.9 11.2-30.9 33.1-51 65.8-57.4 34-6.5 61.3 5.6 83 31.8 1.2 1.4 2.3 2.9 3.7 4.8 1.3-1.7 2.5-3.2 3.7-4.7 12.6-15.4 27.9-26.7 47.6-31.3 34.2-8.1 70.6 6.2 90.3 35.3 9.8 14.4 15.2 30.2 16.9 47.4.1 1.1.4 2.2.6 3.3.1 4.6.1 9.4.1 14.2zm-159.2 161.7c.8-.6 1.5-1.1 2.1-1.6 25.1-21.7 50.4-43.3 75.4-65.3 17.4-15.4 34-31.6 46.9-51.1 12.3-18.6 18.3-38.8 15.5-61.2-3-24.2-13.4-44.2-34.8-56.8-20-11.8-41.1-13.2-62.3-3-12.6 6-21.8 15.9-29.6 27.2-1.1 1.6-2.1 3.3-3.3 4.9-5.1 7-14.2 7-19.4 0-4.5-6-8.7-12.4-13.8-17.9-16.7-17.6-37.2-24.4-60.9-19.3-25.8 5.6-42.6 21.8-51.1 46.2-9.9 28.4-5.2 55 11.2 79.9 10.1 15.4 22.5 28.9 36.2 41.2 22.5 20.3 45.5 40.1 68.4 60 6.4 5.6 12.9 11.2 19.5 16.8z"/></svg>