<svg enable-background="new 0 0 351 328" viewBox="0 0 351 328" xmlns="http://www.w3.org/2000/svg"><path d="m343.3 176.5c-1.6 2.7-2.9 5.6-4.9 8.1-23.7 29.7-51.1 55.1-84.2 74.1-21.8 12.5-44.9 20.9-70.2 22.6-20.6 1.4-40.5-2.1-59.8-9.4-29.1-11-54-28.5-76.8-49.3-13.4-12.2-25.6-25.4-36.7-39.7-4.8-6.1-4.8-10.8 0-16.9 23.9-30.3 51.6-56.2 85.1-75.5 26.3-15.2 54.4-24.3 85.2-23 21.2.9 41.1 6.6 60.1 15.9 39.8 19.5 71.6 48.6 98.9 83 1.4 1.8 2.2 4 3.3 6zm-311.1-2.2c1.2 1.5 2.1 2.6 3 3.6 10.2 10.5 20 21.5 30.8 31.3 20.8 19 44 34.5 71 43.7 16.1 5.5 32.7 7.8 49.7 6 21.8-2.4 41.6-10.5 60.3-21.7 24.2-14.5 45-33.2 63.8-54.2 2.5-2.7 4.8-5.6 7.4-8.7-6.5-7-12.5-13.9-18.9-20.4-21.7-22-45.6-40.8-74.1-53.2-14.2-6.2-29-10.2-44.6-11-23.9-1.1-45.8 5.5-66.7 16.3-23.4 12.1-43.6 28.4-61.9 47-6.9 6.9-13.2 14.1-19.8 21.3z"/><path d="m241.6 174.8c-.3 36.8-30.3 66.6-66.9 66.1-36.8-.4-66.2-30.2-66-66.7.3-36.9 30.3-66.5 66.9-66.1 36.8.4 66.3 30.2 66 66.7zm-22.2-.2c.1-24.3-19.5-44.2-44.1-44.4-24.3-.3-44.6 19.9-44.5 44.4.1 24.4 19.9 44.2 44.3 44.3 24.4 0 44.2-19.8 44.3-44.3z"/></svg>