<svg enable-background="new 0 0 351 328" viewBox="0 0 351 328" xmlns="http://www.w3.org/2000/svg"><path d="m303.4 314.9c-3.1-2.3-6.5-4.3-9.2-6.9-25.9-25.8-51.7-51.7-77.6-77.6-.8-.8-1.3-1.9-2-2.9-1.7 1.2-2.7 1.9-3.7 2.6-15 11.4-31.8 18.9-50.4 21.9-36.7 5.8-69.2-3.6-97-28.3-20.5-18.4-32.9-41.5-37.1-68.7-4.2-27.1.8-52.7 14.7-76.3 12.9-22 31.2-37.9 54.4-48.1 11.3-5 23.2-8.1 35.6-8.9.7-.1 1.5-.3 2.2-.5h15.5c3.3.4 6.6.8 9.9 1.3 27.1 4.6 50.2 16.6 68.5 37.3 24.7 27.8 34.1 60.4 28.3 97.2-2.9 18.2-10.1 34.7-21.1 49.6-1 1.3-1.9 2.6-3.3 4.4 1 .8 2 1.4 2.8 2.2 25.8 25.8 51.6 51.6 77.3 77.5 2.7 2.8 4.8 6.3 7.1 9.4v5.2c-1.6 4.9-4.9 8.1-9.7 9.8-1.8-.2-3.5-.2-5.2-.2zm-70.6-177.5c0-50.5-41.3-91.7-91.7-91.7-50.5 0-91.7 41.3-91.6 91.8.1 50.3 40.4 91.6 91.6 91.8 50.4 0 91.7-41.5 91.7-91.9z"/></svg>