<svg enable-background="new 0 0 351 379.1" viewBox="0 0 351 379.1" xmlns="http://www.w3.org/2000/svg"><circle cx="176.8" cy="202.2" fill="#fb8a01" r="146.5"/><g fill="#fff"><path d="m91.4 135c.5 2.9 1.7 4.9 4.1 5.9 2.6 1.2 5.1.7 7.2-1.3 7.5-7.5 15.8-13.8 25.1-18.9 3.3-1.8 4.4-5.6 2.6-8.7-1.7-3.1-5.5-4.1-8.8-2.3-10.3 5.6-19.6 12.6-27.8 21-1.1 1.2-1.6 2.8-2.4 4.3zm170.4-.8c-.4-.7-.9-2.4-2-3.5-8.2-8.5-17.5-15.5-27.8-21-1.3-.7-3-.9-4.5-.7-2.7.4-4.6 2.6-5 5.3-.4 2.5 1 4.9 3.4 6.5 5.2 3.3 10.4 6.6 15.3 10.2 3.5 2.6 6.6 5.8 9.9 8.8 2.1 1.9 4.5 2.3 7 1.2 2.5-1.2 3.7-3.2 3.7-6.8z"/><path d="m113.7 308.3c-.4-.3-.9-.5-1.3-.8-3.3-1.8-4.3-5.7-2.2-9.1 2.8-4.4 5.6-8.7 8.5-13.1.4-.6.7-1.2 1.1-1.8-43.4-34.4-45.5-99-6.7-136.5 37.3-36.2 95.1-34.8 130.8 3.3 35.1 37.5 32.7 98.5-10 133.2 1 1.5 1.9 3 2.9 4.5 1.9 3 3.9 6 5.8 9 3.4 5.2 2.5 8.6-3 11.3-.9 0-1.8 0-2.7 0-2.3-.8-3.8-2.6-5-4.6-2.7-4.3-5.5-8.6-8.3-12.8-31.2 17-62.2 17-93.4 0-2.8 4.3-5.7 8.7-8.5 13.1-1.2 1.9-2.7 3.5-4.8 4.3-1.1 0-2.2 0-3.2 0zm63.2-17.3c43.4 0 78.7-35.3 78.7-78.7s-35.2-78.6-78.6-78.7-78.8 35.3-78.8 78.7 35.3 78.7 78.7 78.7z"/><path d="m91.4 135c.8-1.4 1.3-3.1 2.4-4.3 8.2-8.5 17.5-15.5 27.8-21 3.3-1.8 7.1-.7 8.8 2.3 1.7 3.1.7 6.8-2.6 8.7-9.3 5.1-17.6 11.4-25.1 18.9-2 2.1-4.5 2.5-7.2 1.3-2.4-1.1-3.6-3-4.1-5.9z"/><path d="m261.8 134.2c-.1 3.6-1.3 5.6-3.7 6.7-2.5 1.2-4.9.7-7-1.2-3.3-3-6.3-6.2-9.9-8.8-4.9-3.7-10.2-6.9-15.3-10.2-2.4-1.5-3.8-4-3.4-6.5.4-2.7 2.3-4.9 5-5.3 1.4-.2 3.2.1 4.5.7 10.4 5.5 19.7 12.5 27.8 21 1.1 1.2 1.6 2.9 2 3.6z"/><path d="m170.6 185.4c0-8.9 0-17.8 0-26.7 0-3.3 2.3-5.9 5.5-6.3 3-.4 6 1.6 6.8 4.6.2.9.2 1.9.2 2.9v47.3c0 1.4.4 2.4 1.5 3.3 7 6.1 14 12.2 21 18.3 1.9 1.7 3.1 3.7 2.7 6.3-.8 5.1-6.6 7-10.7 3.5-5.3-4.5-10.5-9.1-15.7-13.7-2.7-2.4-5.3-4.8-8.1-7-2.4-1.9-3.3-4.2-3.3-7.3.1-8.3.1-16.7.1-25.2z"/></g></svg>