<svg enable-background="new 0 0 351 328" viewBox="0 0 351 328" xmlns="http://www.w3.org/2000/svg"><path d="m232.1 311.3c-40.5 0-80.9 0-121.4 0-8.4-2.7-11.5-8.7-11.1-17.3.3-5.8.1-11.6.1-17.3 0-.9 0-1.7 0-2.7-7.7 0-14.9 0-22.1 0-1.5 0-3.1 0-4.6-.4-6.8-1.6-10.5-7-10.5-14.8 0-58.5 0-117 0-175.5 0-12.9 0-25.9 0-38.8 0-4.2 1-8.1 4.2-10.9 1.9-1.7 4.5-2.7 6.8-4h178c8.3 2.7 11.5 8.5 11.1 17-.3 5.9-.1 11.7-.1 17.6 0 .9.1 1.7.1 2.7h22c9.7 0 15.2 5.5 15.2 15.2v159.9c0 9.9-3.7 18.4-10.9 25.3-11.7 11.2-23.5 22.3-35.4 33.3-2.7 2.5-5.9 4.7-9.2 6.3-4 1.9-8.2 3-12.2 4.4zm-.2-10.5c0-1.2 0-2.3 0-3.4 0-9.9 0-19.8 0-29.7 0-2.2.1-4.4.6-6.5 2.3-8.9 9.3-14.2 18.7-14.3 10.9-.1 21.8 0 32.7 0 5.5 0 5.5 0 5.5-5.7 0-52.7 0-105.4 0-158.2 0-5.3-.7-5.9-6.1-5.9-55.8 0-111.6 0-167.5 0-5.3 0-6 .7-6 6.1v212.1c0 5.2.7 5.9 5.8 5.9h110.6c1.9-.1 3.6-.3 5.7-.4zm20.3-233.8c0-7.2 0-13.9 0-20.7 0-5.9-.5-6.5-6.4-6.5-55.6 0-111.3 0-166.9 0-.9 0-1.8 0-2.7.1-2.1.2-3.3 1.3-3.5 3.5-.1 1 0 2 0 3v196.2 16.5c0 3.7 1.1 4.8 4.7 4.8h15.1 7.2c0-1.5 0-2.6 0-3.6 0-59.1.1-118.1-.1-177.2 0-9.5 5.7-16.3 16.3-16.2 44.1.2 88.2.1 132.4.1zm32.3 190.3c-1.1-.2-1.3-.3-1.6-.3-10.6 0-21.2-.1-31.8 0-5.8.1-9 3.6-9.1 9.5v28c0 .6.1 1.2.3 2.6 14.3-13.4 28-26.4 42.2-39.8z"/><path d="m199.8 124.7c-15.2 0-30.4 0-45.5 0-.5 0-1.1 0-1.6 0-4.5 0-7.1-1.9-7.1-5.1 0-3.3 2.5-5.1 7.1-5.1h94.4c1.1 0 2.2.1 3.2.4 2.4.7 3.6 2.5 3.6 4.9 0 2.3-1.3 4-3.6 4.6-1.2.3-2.5.4-3.8.4-15.7-.1-31.2-.1-46.7-.1z"/><path d="m199.6 158.6c-15.6 0-31.3 0-46.9 0-4.7 0-7.1-1.7-7.2-4.9-.1-3.4 2.4-5.2 7.2-5.2h94.1c1 0 2 0 3 .2 2.5.5 4.1 2.7 4 5.2-.1 2.4-1.8 4.2-4.3 4.6-1.1.2-2.2.2-3.3.2-15.5-.1-31.1-.1-46.6-.1z"/><path d="m199.7 192.5c-16 0-32 0-48 0-3.4 0-5.2-1.2-5.9-3.7-.8-2.9.9-5.7 3.8-6.2 1.1-.2 2.2-.2 3.3-.2h93.5c1 0 2 0 3 .1 2.6.4 4.4 2.3 4.4 4.8.1 2.4-1.7 4.6-4.2 5-1 .2-2 .1-3 .1-15.6.1-31.2.1-46.9.1z"/><path d="m177.8 226.5c-8.7 0-17.4 0-26.1 0-4.7 0-7.4-3.6-5.6-7.3 1.2-2.5 3.5-3 6-3h21.1 29.3c1.3 0 2.6.1 3.8.4 2.1.6 3.3 2.2 3.4 4.5.1 2.4-1 4.1-3.2 4.9-1.2.4-2.5.5-3.8.5-8.3 0-16.6 0-24.9 0z"/></svg>