<svg enable-background="new 0 0 211.6 280.1" viewBox="0 0 211.6 280.1" xmlns="http://www.w3.org/2000/svg"><path d="m113 0c5.5.9 11.2 1.5 16.6 2.8 41.4 9.3 73.5 43.8 80.7 85.6 3.4 19.6-.3 37.8-8.1 55.6-11.1 25.4-26.1 48.6-42.1 71-15.3 21.5-31.7 42.2-49.2 62.1-1.1 1.1-2.2 2.1-3.4 3h-3.3c-1.6-1.5-3.4-3-4.9-4.7-26.2-30.4-50.7-62-71.5-96.4-7.9-13-14.8-26.5-20.6-40.5-10.5-25.3-9.2-50.4 1.8-74.8 15.8-34.9 43-55.6 80.6-62.4 3-.6 6.1-.8 9.2-1.2h14.2zm-7.1 266.3c.9-1 1.5-1.6 2-2.2 14.5-18.5 29.4-36.7 43.4-55.6 15.2-20.5 28.9-42 39.6-65.3 8-17.3 12.1-34.9 8.7-54.3-9.4-51.8-61.6-87.5-112.9-75.9-35.4 8-59.2 29.5-71.1 63.8-6 17.4-6.6 35.1-.1 52.8 4.8 12.8 10.7 25.1 17.6 36.9 17 29.3 37.3 56.3 58.5 82.7 4.6 5.6 9.4 11.2 14.3 17.1z"/><path d="m108 168.3c-31.8-.8-56.9-27.1-56.1-58.9.7-30.6 25.3-55.2 55.9-56.1 31.4-.1 57.3 25.7 57.6 57.3 0 31.7-25.6 57.5-57.4 57.7zm-46.7-57.5c0 25.7 21.1 46.7 46.6 46.6 25.7 0 46.6-20.9 46.6-46.6s-20.9-46.6-46.6-46.6-46.6 20.9-46.6 46.6z"/></svg>