<svg enable-background="new 0 0 351 379.1" viewBox="0 0 351 379.1" xmlns="http://www.w3.org/2000/svg"><path d="m30.3 64.5c.8 4.9 2.9 8.3 7 10.1 4.5 2 8.7 1.2 12.2-2.3 12.7-12.7 26.9-23.5 42.6-32.1 5.7-3.1 7.4-9.4 4.5-14.7-2.9-5.2-9.3-6.9-14.9-3.9-17.7 9.4-33.5 21.3-47.3 35.7-1.9 1.9-2.8 4.8-4.1 7.2zm289.7-1.3c-.7-1.2-1.6-4.1-3.4-6-13.9-14.4-29.7-26.3-47.3-35.7-2.2-1.1-5.1-1.5-7.6-1.2-4.7.6-7.8 4.3-8.5 8.9-.6 4.2 1.8 8.4 5.8 11 8.8 5.7 17.7 11.2 26.1 17.4 6 4.4 11.2 9.9 16.8 14.9 3.6 3.2 7.6 4 11.9 2 4.1-1.8 6.1-5.2 6.2-11.3z" fill="#fff"/><path d="m68.2 359.1c-.7-.4-1.4-.9-2.2-1.3-5.6-3.1-7.3-9.7-3.8-15.4 4.7-7.5 9.6-14.8 14.4-22.2.6-1 1.2-2 1.9-3-73.7-58.6-77.4-168.3-11.4-232.1 63.5-61.4 161.7-59.1 222.2 5.6 59.7 63.8 55.5 167.4-16.9 226.4 1.6 2.5 3.3 5.1 4.9 7.6 3.3 5.1 6.6 10.2 9.9 15.3 5.8 8.9 4.3 14.6-5.1 19.1-1.5 0-3.1 0-4.6 0-3.9-1.4-6.4-4.3-8.6-7.8-4.6-7.4-9.4-14.6-14.1-21.8-53 28.9-105.7 28.8-158.7 0-4.8 7.3-9.7 14.7-14.4 22.3-2.1 3.3-4.5 5.9-8.2 7.3-1.7 0-3.5 0-5.3 0zm107.4-29.5c73.7-.1 133.7-60 133.7-133.7s-59.8-133.6-133.6-133.7-134 60-133.9 133.8c0 73.7 60.1 133.7 133.8 133.6z"/><path d="m30.3 64.5c1.3-2.4 2.2-5.3 4-7.2 13.9-14.4 29.7-26.3 47.3-35.8 5.6-3 12-1.3 14.9 3.9 2.9 5.3 1.2 11.6-4.5 14.7-15.7 8.7-29.9 19.4-42.6 32.1-3.5 3.5-7.7 4.3-12.2 2.3-4-1.7-6.1-5.1-6.9-10z"/><path d="m320 63.2c-.1 6.1-2.1 9.5-6.2 11.4-4.3 2-8.4 1.2-11.9-2-5.6-5-10.8-10.5-16.8-14.9-8.4-6.2-17.3-11.7-26.1-17.4-4.1-2.6-6.5-6.8-5.8-11 .7-4.6 3.8-8.3 8.5-8.9 2.5-.3 5.4.1 7.6 1.2 17.7 9.4 33.5 21.3 47.3 35.7 1.8 1.8 2.7 4.7 3.4 5.9z"/><path d="m164.9 150.3c0-15.1 0-30.2 0-45.4 0-5.6 4-10 9.4-10.7 5.1-.7 10.2 2.8 11.5 7.9.4 1.6.4 3.3.4 4.9v80.4c0 2.4.6 4 2.5 5.7 11.9 10.3 23.8 20.8 35.7 31.1 3.3 2.9 5.3 6.2 4.6 10.7-1.4 8.6-11.2 11.9-18.1 6-9-7.7-17.8-15.5-26.7-23.3-4.6-4-9-8.2-13.7-11.9-4.1-3.3-5.7-7.2-5.6-12.4.1-14.3 0-28.7 0-43z"/></svg>