<svg enable-background="new 0 0 253.4 253.4" viewBox="0 0 253.4 253.4" xmlns="http://www.w3.org/2000/svg"><path d="m152.8 15.2c3.2 1.3 6.7 2.2 9.6 4.1 6.2 4.1 8.7 10.4 8.8 17.7v5.6h2.5 23.4c9.3.1 16.2 4.1 19.9 12.9 4.1 10.2-.8 21.8-11 25.9-1.7.4-2.8 2.1-2.5 3.8.1 42 .1 84.1 0 126.1.2 6.4-1.6 12.8-5.1 18.1-4.8 7.3-12.9 11.6-21.7 11.5-7.7.1-15.4 0-23.1 0-25.1 0-50.2-.2-75.4 0-15.6.2-27.7-11.6-28-27.5-.4-13.2-.2-26.4-.2-39.5 0-29.8 0-59.7 0-89.5.2-1.4-.7-2.7-2.1-3-8.6-3.3-13.9-12-12.8-21.1 1.1-9.4 8.8-16.7 18.2-17.4 6.8-.4 13.7-.3 20.5-.3h8.3c.2-3.1.2-6 .5-9 .9-9.2 8-16.7 17.2-18.1.3-.1.7-.2 1-.3zm-92.1 67.8v1.9 126.8c0 1.5.1 3 .4 4.4 1 8.2 8.1 14.4 16.4 14.3h98.8c4.1.1 8.1-1.4 11-4.2 4.3-4 5.7-9.1 5.7-14.8 0-42 0-84.1 0-126.1v-2.3zm66-10.7h69.2c1.2 0 2.3 0 3.5-.1 5.2-.6 8.9-5.3 8.2-10.5-.5-3.8-3.1-6.9-6.8-7.9-1.5-.3-3-.5-4.6-.4h-139c-1.2 0-2.3.1-3.5.2-4.3.7-7.6 4.2-7.9 8.6-.4 4.3 2.2 8.2 6.3 9.6 1.7.5 3.4.7 5.2.6 23.1-.1 46.2-.1 69.4-.1zm33.8-29.8c0-2.7.2-5.2 0-7.7-.4-5.1-4.6-9-9.7-9-16-.1-31.9-.1-47.8 0-4.8-.1-9 3.5-9.7 8.3-.2 2.8-.2 5.6 0 8.4z"/><path d="m100.8 152.3v47.8 2.2c-.1 2.7-2.2 4.9-4.9 5-2.7.2-5-1.8-5.4-4.4-.1-.8-.2-1.6-.2-2.4 0-32.2 0-64.5 0-96.7 0-4.4 2.1-7 5.6-6.8 2.8.1 5 2.5 4.9 5.2.1 2.1 0 4.3 0 6.4z"/><path d="m121.5 152.1c0-16.2 0-32.5 0-48.7 0-3.8 1.7-6 4.8-6.3 2.6-.4 5 1.4 5.5 4 .2 1 .3 2 .3 3v96.3c0 1-.1 2-.3 3-.7 2.8-3.4 4.5-6.2 3.8-1.8-.4-3.3-1.9-3.8-3.7-.2-1-.3-2-.3-3 0-16.1 0-32.3 0-48.4z"/><path d="m152.7 152.3v-48.2c0-4.6 1.8-7 5.2-7s5.4 2.5 5.4 7.1v96.3c0 4.5-1.9 7-5.2 7-3.4.1-5.4-2.4-5.4-7.1z"/></svg>