<svg enable-background="new 0 0 351 328" viewBox="0 0 351 328" xmlns="http://www.w3.org/2000/svg"><circle cx="175.5" cy="164" fill="#fb8a01" r="146.5"/><path d="m188.9 261.5c-17.8 0-35.7 0-53.5 0-3.7 0-4.7-.9-4.7-4.7 0-11.4 0-22.7 0-34.1 0-1.2-.2-2.4-.5-3.6-12.6-40.3-25.2-80.6-37.8-120.9-1.2-3.8-.7-4.9 3.2-6.1 10.9-3.4 21.9-6.9 32.8-10.2 1.6-.5 2.4-1.1 2.3-3-.2-2.7-.1-5.4 0-8.1 0-3.2 1.1-4.3 4.2-4.3h54.5 27.6c3.5 0 4.5 1 4.5 4.4v54.2c0 1.4.4 3 1 4.2 7.4 14 14.8 27.9 22.3 41.9 1.8 3.3 2.6 6.7 2.6 10.5-.1 25 0 49.9 0 74.9 0 4-.9 4.9-4.9 4.9-17.8 0-35.7 0-53.6 0zm-38.6-165.7v136.5h5.6c2.8 0 4 1.2 4 3.9v5.7h29.7c-.3-.7-.5-1.2-.7-1.8-1-4-2-8-3-11.9-.3-1-.5-2.1-1-3-6.3-9.5-12.7-19-19.1-28.4-3.1-4.6-4-9.6-2.1-14.9.6-1.7.5-2.6-.9-3.9-6.6-6.1-8-15.8-3.6-23.6 4.3-7.7 13.4-11.5 21.8-9.3 8.7 2.3 14.6 10 14.6 19 0 4.6-1.6 8.7-4.5 12.4 3.6 4.9 7.1 9.8 10.9 15 0-32.2 0-63.9 0-95.7-2 0-3.9 0-5.7 0-2.7 0-3.8-1.2-3.9-3.8 0-1.9 0-3.9 0-5.8-10.9 0-21.6 0-32.4 0v5.7c0 2.8-1.2 3.9-4 3.9-1.9 0-3.7 0-5.7 0zm90.7 159.2c0-.8 0-1.4 0-2 0-24 0-47.9-.1-71.9 0-2.1-.6-4.5-1.6-6.4-5.4-10.5-11-20.9-16.6-31.3-.3-.5-.6-.9-1.2-1.8v2.7 60.9c0 3.1-1.1 4.2-4.1 4.2-2.2 0-4.3-.2-6.5 0-2.9.3-4.7-.8-6.4-3.2-5.8-8.3-11.7-16.4-17.6-24.5-2.4-3.3-5.6-4.9-9.7-4.2-7.3 1.3-10.4 9.1-6.2 15.4 6.7 10 13.5 20 20.1 30 .6 1 1.1 2.2 1.2 3.3.3 12.8 8.8 24.2 21.1 27.4 4 1.1 8.4 1.1 12.6 1.2 5 .3 9.9.2 15 .2zm-87.6-16.3c-1.9 0-3.6 0-5.3 0-3.4 0-4.5-1-4.5-4.5 0-11.1 0-22.2 0-33.3 0-35.7 0-71.5 0-107.2 0-3.5 1-4.5 4.4-4.5h5.3c0-2.1 0-3.9 0-5.7 0-2.8 1.2-4 3.9-4h37.7c2.6 0 3.8 1.2 3.8 3.9v5.8h6.2c2.3.1 3.4 1.3 3.5 3.6v1.8 104c0 .9.1 1.9.5 2.7 1.3 2.8 3.8 1.3 5.8 1.7 0-43.4 0-86.6 0-129.8-26 0-51.8 0-77.6 0v181.7h63.2c-1.8-1.7-3.6-3.1-5.1-4.8-1.1-1.2-2.1-1.6-3.7-1.5-11.3.1-22.7 0-34.1 0-3.3 0-4.3-1.1-4.3-4.4.3-1.8.3-3.5.3-5.5zm-22.7-150.7c-10.6 3.3-21 6.6-31.6 9.9 10.4 33.4 20.8 66.7 31.2 100 .4-6.3.4-12.4.3-18.6 0-1.3-.2-2.7-.6-4-6.2-19.9-12.4-39.7-18.6-59.6-1.1-3.4-.4-4.6 3-5.7 1.6-.5 3.2-1 4.9-1.5-.6-1.8-1.1-3.4-1.6-5-1.1-3.4-.4-4.7 3-5.7 3.3-1 6.5-2 9.8-3.1.2-2.2.2-4.3.2-6.7zm55.1 84.4c4.9-5.2 4.2-13.9-1.6-18.5-6-4.8-14.8-3.4-19 3-3.9 5.9-2.2 14.4 3.5 17.6 6.1-3.9 9.2-4.3 17.1-2.1zm-67.5-56.6c4.1 13.1 8.1 25.9 12.1 38.6.1 0 .1-.1.2-.1 0-17.5 0-34.9 0-52.6-2.1.7-4 1.3-5.9 1.9.6 2 1.2 3.8 1.7 5.6.7 2.5 0 3.9-2.4 4.7-1.8.7-3.7 1.2-5.7 1.9z" fill="#fff"/></svg>