<svg enable-background="new 0 0 351 328" viewBox="0 0 351 328" xmlns="http://www.w3.org/2000/svg"><path d="m288.5 189.3v3.9 80.7c0 19.4-13.2 32.5-32.5 32.6-14.2 0-28.4 0-42.6 0-6.9 0-10-3.2-10-10.2 0-21.4 0-42.8 0-64.2 0-10.1-5.7-15.7-15.8-15.8-8 0-16.1 0-24.1 0-9.4 0-15.2 5.8-15.2 15.2v64.4c0 7.3-3.1 10.4-10.3 10.5-14.2 0-28.4 0-42.6 0-19 0-32.2-13.3-32.2-32.3 0-27 0-54 0-81 0-1.1 0-2.2 0-3.8-1.3 0-2.5 0-3.6 0-11.5-.1-21.1-6.1-25.1-16.4-4.2-10.9-2.1-20.8 6.1-29.1 17.6-17.8 35.4-35.4 53.1-53.1 20.7-20.7 41.8-41.2 62.1-62.3 10.5-10.9 29.6-10.9 40.2-.1 38 38.7 76.5 77 115.1 115.2 12 11.8 10.4 33.8-4.6 42.2-4 2.2-8.2 3.6-12.8 3.6-1.8.1-3.4 0-5.2 0zm-68.4 100.3h35.5c10.5 0 16-5.5 16-16.1 0-30.4 0-60.9 0-91.3 0-6.3 3.4-9.6 9.7-9.7 3.9 0 7.8.1 11.8 0 4.3-.1 7.7-2.8 8.9-6.9 1.4-4.7-.9-8-4-11.2-38-37.9-76-75.9-114-113.8-5.8-5.8-10.7-5.8-16.6.1-33.8 33.8-67.6 67.6-101.4 101.4-4.6 4.6-9.3 9.2-13.9 13.9-3.1 3.1-4 6.8-2.2 10.8 1.7 3.9 4.9 5.8 9.1 5.8h9.5c8.5 0 11.3 2.8 11.3 11.2 0 30 .2 60-.1 89.9-.1 10.2 7.3 16.4 15.9 16.1 10.8-.4 21.7-.1 32.5-.1h3.2c0-1.5 0-2.6 0-3.7 0-19-.2-37.9.1-56.9.2-14.9 12.2-28 27.1-29 11.4-.8 22.9-.2 34.4-.1.9 0 1.9.2 2.8.4 14.6 3.3 24.2 15.3 24.3 30.5.1 18.4 0 36.8 0 55.2.1 1 .1 2.1.1 3.5z"/></svg>