<svg enable-background="new 0 0 351 328" viewBox="0 0 351 328" xmlns="http://www.w3.org/2000/svg"><circle cx="175.5" cy="164" fill="#fb8a01" r="146.5"/><g fill="#fff"><path d="m126.2 274.4c-3.8-1.2-7.6-2.4-10.7-5.1-4.5-4-6.9-9-7.4-14.9 0-.3 0-.6 0-.8 0-47.1 0-94.1 0-141.2 0-11.3 9.5-20.6 20.8-20.8h4.5c0-.9 0-1.6 0-2.3 0-6 0-12 0-18 0-8.2 5.4-13.5 13.5-13.5h53.3c8.2 0 13.5 5.4 13.5 13.5v19.7c0 .1.1.3.2.6h3c12.9 0 22.1 9.2 22.2 22.1v102.9c0 11.7-.2 23.4.1 35.1.2 10.8-6.7 20.5-17.7 22.5-.2 0-.3.2-.5.3-31.6-.1-63.2-.1-94.8-.1zm-9.8-74.5v52c0 8.7 5.2 14 13.9 14h86.3c8.8 0 14-5.2 14-14.1 0-34.6 0-69.2 0-103.9 0-8.9-5.2-14.1-14-14.1-28.7 0-57.4 0-86.1 0-9 0-14.1 5.2-14.1 14.2zm.2-70.6c.3-.1.5 0 .6-.2 4.3-3 9.1-3.8 14.3-3.8 26.4.1 52.9 0 79.3 0 6.8 0 13.7-.5 19.9 4.4 0-5.4-.2-10.4 0-15.3.4-8.9-5.9-16-16.9-14.3v8.2h2.8c3.4 0 5.5 1.6 5.5 4.2s-2 4.2-5.5 4.2c-.5 0-1 0-1.5 0-22.2 0-44.4 0-66.6 0-6.3 0-12.6 0-18.8 0-2.9 0-4.8-1.7-4.9-4.2 0-2.5 1.9-4.2 4.8-4.3h3.5c0-3 0-5.7 0-8.4-1.7 0-3.3-.1-4.8 0-6.2.5-11.3 4.9-11.7 11-.4 6.3 0 12.4 0 18.5zm54.7-20.9c0-14.1 0-28.1 0-42.2-8 0-15.8 0-23.6 0-4.5 0-5.9 1.4-5.9 5.8v34.3 2.2c9.9-.1 19.6-.1 29.5-.1zm16.9 0c0-14 0-28.1 0-42.1-2.8 0-5.5 0-8.1 0v42.1zm8.8-42.1v42.1h8.3c0-.9 0-1.6 0-2.4 0-10.8 0-21.6 0-32.4 0-6.7-1.1-7.7-7.8-7.5-.1.1-.2.1-.5.2z"/><path d="m173.4 184.7c-11.5 0-23 0-34.5 0-8.7 0-14-5.2-14-13.9 0-4.9 0-9.7 0-14.6 0-8.5 5.3-13.8 13.7-13.8h70c8.3 0 13.6 5.3 13.7 13.6v15.2c-.1 8.1-5.4 13.5-13.6 13.5-11.8 0-23.6 0-35.3 0zm0-8.5h34.9c4 0 5.5-1.5 5.5-5.5 0-4.9 0-9.7 0-14.6 0-3.7-1.6-5.3-5.3-5.3-23.3 0-46.6 0-69.8 0-3.7 0-5.2 1.6-5.3 5.3v14.4c0 4.3 1.4 5.7 5.8 5.7z"/><path d="m139.6 193.6c2.2 0 4.2 1.9 4.3 4.1 0 2.2-1.9 4.2-4.1 4.3-2.2 0-4.2-1.9-4.3-4.1 0-2.3 1.9-4.3 4.1-4.3z"/><path d="m173.6 193.6c2.2 0 4.2 2 4.2 4.2s-2 4.2-4.2 4.2-4.2-2-4.2-4.2c0-2.3 2-4.2 4.2-4.2z"/><path d="m211.6 197.8c0 2.2-2 4.2-4.2 4.2s-4.2-2-4.2-4.2 2-4.2 4.2-4.2c2.3 0 4.3 2 4.2 4.2z"/><path d="m139.8 210.5c2.2 0 4.2 2.1 4.1 4.3 0 2.2-2.1 4.2-4.3 4.1-2.2 0-4.2-2.1-4.1-4.3s2.1-4.1 4.3-4.1z"/><path d="m177.8 214.6c0 2.2-1.9 4.2-4.1 4.3-2.2 0-4.2-1.9-4.3-4.1 0-2.2 1.9-4.2 4.1-4.3 2.2 0 4.2 1.9 4.3 4.1z"/><path d="m211.6 214.7c0 2.2-2 4.2-4.2 4.2s-4.2-2-4.2-4.2 2-4.2 4.2-4.2c2.3 0 4.3 2 4.2 4.2z"/><path d="m143.9 231.6c0 2.2-1.9 4.2-4.2 4.2-2.2 0-4.2-1.9-4.2-4.2 0-2.2 1.9-4.2 4.2-4.2 2.2 0 4.2 2 4.2 4.2z"/><path d="m177.8 231.6c0 2.2-2 4.2-4.2 4.2s-4.2-2-4.2-4.2 2-4.2 4.2-4.2 4.2 2 4.2 4.2z"/><path d="m211.6 231.7c0 2.2-2 4.2-4.2 4.2s-4.2-2-4.2-4.2 2-4.2 4.2-4.2c2.3 0 4.3 2 4.2 4.2z"/><path d="m143.9 248.6c0 2.2-2 4.2-4.2 4.2s-4.2-2-4.2-4.2 2-4.2 4.2-4.2c2.3 0 4.2 2 4.2 4.2z"/><path d="m177.8 248.5c.1 2.2-1.9 4.2-4.1 4.3s-4.2-1.9-4.3-4.1 1.9-4.2 4.1-4.3 4.2 1.8 4.3 4.1z"/><path d="m211.6 248.6c0 2.2-2.1 4.2-4.3 4.1-2.2 0-4.2-2.1-4.1-4.3 0-2.2 2.1-4.2 4.3-4.1s4.2 2.1 4.1 4.3z"/><path d="m156.7 167.7c-2.6 0-5.2 0-7.8 0-2.9 0-4.8-1.8-4.9-4.2 0-2.4 1.9-4.2 4.8-4.2h15.7c2.9 0 4.8 1.8 4.9 4.2 0 2.4-1.9 4.2-4.8 4.2-2.7.1-5.3 0-7.9 0z"/><path d="m199.1 159.3c2.2.1 4.1 2.2 4.1 4.3-.1 2.2-2.2 4.1-4.3 4.1-2.2-.1-4.1-2.2-4.1-4.3.1-2.3 2.1-4.2 4.3-4.1z"/><path d="m186.2 163.5c0 2.2-2 4.2-4.2 4.2s-4.2-2-4.2-4.2 2-4.2 4.2-4.2 4.2 2 4.2 4.2z"/></g></svg>