<svg enable-background="new 0 0 351 328" viewBox="0 0 351 328" xmlns="http://www.w3.org/2000/svg"><circle cx="175.5" cy="164.4" fill="#fb8a01" r="146.5"/><g fill="#fff"><path d="m277.1 205.1c0-9.2-7.5-16.6-16.6-16.7-9.3-.1-17 7.6-16.9 16.9s7.8 16.8 17.1 16.7c9.1-.2 16.5-7.8 16.4-16.9zm-144.4 16.8c9.1.1 16.7-7.2 16.9-16.3.2-9.4-7.2-17.1-16.5-17.3-9.3-.1-16.9 7.5-16.9 16.9 0 9.2 7.4 16.6 16.5 16.7zm-47-66.5c-4.8 0-9.7 0-14.5 0-3.2 0-5.5 1.5-5.6 4.8-.1 3.5 2.3 5.2 5.6 5.2 9.7.1 19.3 0 29 0 3.3 0 5.8-1.3 5.8-5 0-3.6-2.5-5-5.8-5-4.8 0-9.7 0-14.5 0zm1.5 39.7s0 .1 0 0c2.1 0 4.5.7 6.2-.1 1.9-.9 4.3-3 4.6-4.8.2-1.4-2.5-4.3-4.2-4.6-4.4-.7-9-.7-13.4 0-1.7.3-4.1 3.1-4.1 4.7s2.4 3.8 4.3 4.6c1.8.9 4.4.2 6.6.2z"/><path d="m299.2 203.6c-3.4 8.5-5.9 9.9-16 8.6 1.8-9.1.4-17.5-6.7-24.2-4.8-4.5-10.5-6.8-17.1-6.5-15 .6-23.3 12.1-22.1 30.8-27.1 0-54.2 0-81.3 0 1.1-19.4-8.3-31.4-23.9-30.8-15.1.5-24.2 12.9-22.1 30.3-12.8 2.2-17.8 1.4-17.4-10 8.9-2.9 12-6.2 11.5-12.4-.4-5.8-4.2-9-12.4-10.3 0-2.4 0-4.9 0-8 3.1 0 6.1.1 9.2 0 6.6-.3 10.9-4.4 11.1-10.4.2-6.2-4.2-10.8-10.8-11.2-2.8-.2-5.7 0-8.6 0 0-2.9 0-5.3 0-8.2h18.5c7.8-.1 12.7-4.3 12.8-10.8 0-6.5-5-10.9-12.6-10.9-5.1 0-10.3 0-15.5 0 .8-6.5 3.9-9.4 10.7-9.5 8.9-.2 17.7-.1 26.6-.1 29.3 0 58.6 0 87.9-.2 8.1-.1 14.1 2.7 18.8 9.5 6.7 9.7 13.9 19 21.1 28.2 1.8 2.3 4.4 4.1 7.1 5.3 5.2 2.5 10.6 4.6 16.1 6.5 8.7 3.1 14.9 8.2 15.3 18.1-.2 8.8-.2 17.5-.2 26.2zm-96.2-53.2h49.5c-6.6-10.1-12.8-19.7-21.8-27-1-.8-2.2-1.7-3.4-1.8-8.1-.2-16.2-.1-24.3-.1z"/><path d="m51.8 128.2c2.5-.9 4.9-2.6 7.4-2.6 17.2-.2 34.4-.1 51.7-.1h1.4c3.3.2 5.7 1.6 5.6 5.2-.1 3.3-2.4 4.7-5.5 4.7-5 0-10 0-15 0-12.7 0-25.4.2-38.1-.2-2.5-.1-4.9-2.1-7.4-3.2-.1-1.2-.1-2.5-.1-3.8z"/><path d="m277.1 205.1c0 9.1-7.3 16.7-16.4 16.9-9.3.1-17-7.4-17.1-16.7s7.7-17 16.9-16.9c9.2 0 16.6 7.5 16.6 16.7z"/><path d="m132.7 221.9c-9.1-.1-16.5-7.6-16.5-16.7 0-9.4 7.6-17 16.9-16.9s16.7 7.9 16.5 17.3c-.2 9.1-7.8 16.4-16.9 16.3z"/><path d="m85.7 155.4h14.5c3.3 0 5.8 1.3 5.8 5s-2.5 5-5.8 5c-9.7 0-19.3 0-29 0-3.4 0-5.8-1.7-5.6-5.2.1-3.2 2.4-4.7 5.6-4.8z"/><path d="m87.2 195.1c-2.2 0-4.7.6-6.7-.2-1.8-.8-4.3-3-4.3-4.6 0-1.7 2.4-4.5 4.1-4.7 4.4-.7 9-.7 13.4 0 1.7.3 4.4 3.2 4.2 4.6-.3 1.8-2.6 3.9-4.6 4.8-1.6.8-4 .2-6.1.1z"/></g></svg>