<svg enable-background="new 0 0 351 379.1" viewBox="0 0 351 379.1" xmlns="http://www.w3.org/2000/svg"><path d="m228.7 323.1c4.6 8.7 9.3 17.4 14.2 26.6-4.6 2.5-9.2 4.9-14 7.5-4.4-8.2-8.8-16.1-12.9-24.2-1.5-3.1-2.9-3.9-6.5-2.9-18.8 5.6-37.6 5.4-56.4-.2-2.6-.8-3.7-.4-4.9 2-4.3 8.4-8.8 16.7-13.4 25.2-4.8-2.5-9.2-4.9-14.1-7.5 4.8-9 9.5-17.7 14.2-26.6-41.2-24.7-59.3-60.7-53.5-108.8-12.6-5.1-21.3-14.1-24.4-27.8-2.3-10.4-.2-20.1 5.6-28.9 11.2-16.9 36.8-24.4 57.5-6.4 41.1-27.4 82.1-27.5 123.2-.1 22.6-19.4 49.5-8.6 59.3 9.2 10.8 19.6 2.8 44.9-20.4 54 5.9 47.8-12.1 83.9-53.5 108.9zm38.7-90.6c0-47.4-38.2-85.7-85.6-85.7s-85.6 38-85.8 85.6c-.2 47.5 38.3 86 85.8 85.9 47.4-.1 85.6-38.4 85.6-85.8zm-12.2-70.1c10.1 10.8 17.4 22.8 22.4 36.5 8.6-4.3 13.6-10.5 13.7-19.8.1-9.2-4.1-16.2-12.5-20-8.2-3.9-16-2.7-23.6 3.3zm-147.1.2c-7-6.1-16.2-7.3-24.1-3.3-8.1 4-12.6 12.4-11.8 21.6.8 8.2 6.2 15.3 13.8 17.5 4.9-13.3 12.2-25.3 22.1-35.8z"/><path d="m247.8 44.1c-3.3 4.3-6.3 8.3-9.3 12.2-38-24.9-75.5-25-113.6 0-3-3.9-6.1-8.1-9.2-12.2 36.9-29.3 93.5-30.2 132.1 0z"/><path d="m228 71c-3.2 4.2-6.2 8.1-9.4 12.3-24.4-16.3-48.8-16.4-73.7 0-3-3.9-6.2-8-9.4-12.1 23.5-20 64.4-22.6 92.5-.2z"/><path d="m198 110.9c-11.1-7.4-21.8-7.3-32.7 0-3.2-4-6.4-8-9.6-12 11.8-11.3 35.7-13.7 51.9-.2-3.1 4-6.3 8-9.6 12.2z"/><path d="m173.9 177.6h15.8v55.7h55.6v15.8c-23.7 0-47.4 0-71.4 0 0-23.8 0-47.5 0-71.5z"/></svg>