<svg enable-background="new 0 0 256.8 257.3" viewBox="0 0 256.8 257.3" xmlns="http://www.w3.org/2000/svg"><path d="m237.2 257.3h-217.6c-.3-.2-.6-.3-.9-.4-11.7-2.6-18.7-11.2-18.7-23.1 0-59.9 0-119.8 0-179.8 0-13.6 9.8-23.3 23.5-23.3h33.3 3.9c0-7 .2-13.8-.1-20.5-.2-4.8 1.3-8.2 5.6-10.2h4c4.3 2 5.8 5.4 5.6 10.1-.3 6-.1 12.1-.1 18.1v2.3h105.3c0-6.9.2-13.6-.1-20.4-.2-4.7 1.2-8.1 5.6-10.1h4c4.3 2 5.8 5.4 5.6 10.1-.3 6.8-.1 13.5-.1 20.5h2.9c11.8 0 23.6-.2 35.4.1 9.7.2 16.6 5 20.6 13.8.7 1.9 1.3 3.8 1.8 5.7v187.4c-.2.6-.4 1.3-.5 1.9-2 7.9-6.8 13.4-14.5 16.4-1.4.6-3 .9-4.5 1.4zm-222.1-120.5v96.4c0 6.2 2.8 9 9.1 9h208.6c6.2 0 9-2.8 9-9v-96.4zm226.6-15.2c0-.7.1-1.2.1-1.7 0-22 0-44 0-66.1 0-5-3.2-8.1-8.2-8.1-11.8 0-23.6 0-35.4 0-.6 0-1.3.1-2 .2v16.1c.9.4 1.8.8 2.6 1.2 11.1 5.7 15.5 19.2 9.9 30.3s-19.2 15.5-30.3 9.9c-11.1-5.7-15.5-19.2-9.9-30.3 2.3-4.5 6-8.1 10.6-10.2.8-.4 1.9-1.2 2-1.8.2-5.1.1-10.1.1-15.2h-105.5c0 4.5.2 8.7-.1 13-.1 2.3.6 3.4 2.7 4.5 9.3 4.7 14.2 15.1 11.8 25.3-2.9 12.1-15.1 19.6-27.2 16.7s-19.6-15.1-16.7-27.2c1.5-6.4 5.8-11.9 11.7-14.9.9-.5 1.8-.9 2.5-1.2v-16.4h-36.6c-5.8 0-8.7 2.9-8.7 8.8v67zm-173.5-45.7c-4.2 0-7.5 3.4-7.5 7.5s3.4 7.5 7.5 7.5c4.2 0 7.5-3.4 7.5-7.5v-.1c-.1-4.1-3.4-7.4-7.5-7.4zm120.4 15c4.2 0 7.5-3.4 7.5-7.6s-3.4-7.5-7.6-7.5-7.5 3.4-7.5 7.6v.1c.2 4.1 3.5 7.4 7.6 7.4z"/><path d="m237.2 257.3c1.5-.4 3.1-.8 4.5-1.3 7.7-2.9 12.5-8.4 14.5-16.4.2-.6.4-1.3.5-1.9v19.6z" fill="#fff"/><path d="m68.2 166.8c-4.8 0-9.7 0-14.5 0-4.7 0-8-3.2-8.1-7.4s3.4-7.6 8.2-7.6h28.8c4.8 0 8.2 3.2 8.2 7.6s-3.4 7.5-8.3 7.5-9.5-.1-14.3-.1z"/><path d="m128.2 166.8c-4.8 0-9.5 0-14.3 0s-8.2-3.2-8.2-7.6 3.4-7.4 8.1-7.4h29c4.7 0 8 3.2 8 7.5s-3.3 7.5-7.9 7.6c-4.8 0-9.7-.1-14.7-.1z"/><path d="m188.6 166.8c-4.8 0-9.7 0-14.5 0-4.7 0-8-3.2-8.1-7.4s3.4-7.6 8.1-7.6h28.8c4.8 0 8.2 3.2 8.2 7.6s-3.4 7.5-8.3 7.5-9.5-.1-14.2-.1z"/><path d="m68.2 197c-4.8 0-9.5 0-14.3 0s-8.3-3.1-8.3-7.5 3.4-7.6 8.2-7.6h28.8c4.8 0 8.2 3.2 8.2 7.6s-3.4 7.5-8.3 7.5-9.5 0-14.3 0z"/><path d="m128.4 197c-4.8 0-9.7 0-14.5 0-4.6 0-8-3.2-8-7.5s3.3-7.6 7.9-7.6h29.3c4.6 0 7.9 3.3 7.9 7.6 0 4.2-3.5 7.5-7.6 7.5-.1 0-.1 0-.2 0-5 0-9.9 0-14.8 0z"/><path d="m188.5 197c-4.8 0-9.7 0-14.5 0-4.6 0-8-3.2-8-7.5s3.4-7.5 8-7.5h29.3c4.6 0 7.9 3.3 7.9 7.6s-3.4 7.4-7.9 7.4c-4.9 0-9.9 0-14.8 0z"/><path d="m68.2 212.1h14.5c4.7 0 8 3.2 8.1 7.4s-3.3 7.6-8.2 7.6c-9.6 0-19.2 0-28.8 0-4.8 0-8.2-3.2-8.2-7.6s3.4-7.5 8.3-7.5 9.5.1 14.3.1z"/><path d="m128.4 227.1c-4.8 0-9.7 0-14.5 0-4.7 0-8-3.2-8.1-7.5s3.4-7.6 8.2-7.6h28.8c4.8 0 8.2 3.2 8.2 7.6s-3.4 7.5-8.3 7.5-9.5 0-14.3 0z"/><path d="m188.6 227.1c-4.8 0-9.7 0-14.5 0-4.7 0-8-3.2-8.1-7.4s3.4-7.6 8.1-7.6h28.8c4.8 0 8.2 3.2 8.2 7.6s-3.4 7.5-8.3 7.5-9.5-.1-14.2-.1z"/></svg>