<svg enable-background="new 0 0 351 328" viewBox="0 0 351 328" xmlns="http://www.w3.org/2000/svg"><path d="m292.3 303.6c-19.3-6.6-38.6-13.2-57.9-19.7-.9-.3-2.2-.1-3 .3-12.8 6-26.2 10-40.3 12-22.3 3.1-44.1 1.1-65.1-7-40.7-15.6-69.1-43.9-82.7-85.4-14.8-44.8-7.6-86.9 20.4-124.9 20.8-28.1 48.9-45.5 83.3-51.9 39.6-7.4 76.1 1.1 108.2 25.5 27.7 21.1 45 49 51.5 83.3 5.4 28.5 1.8 56-10.3 82.4-1.1 2.3-1.2 4.2-.3 6.7 5.9 16.9 11.7 33.9 17.6 50.9.6 1.6 1.1 3.3 1.6 4.9v6c-1.4 5.1-3.5 9.9-8.2 12.9-2.7 1.7-5.8 2.7-8.7 4-2.1 0-4.1 0-6.1 0zm-124.4-262.7c-4.8.7-14.3 1.3-23.4 3.5-65.5 15.8-104.9 81.8-87.8 147 7 26.9 22.1 48.5 44.1 65.3 20.8 15.8 44.4 23.9 70.6 24.2 19.5.2 38-4.1 55.4-12.9 3.6-1.8 7-2 10.7-.6 7.4 2.7 14.9 5.2 22.4 7.7 11.1 3.8 22.1 7.7 33.2 11.3 1.3.4 3.3.3 4.5-.4 1.8-1 1.2-3 .5-4.7-.2-.5-.4-1-.5-1.5-5.9-17.1-11.6-34.4-17.8-51.4-2.1-5.7-1.6-10.3 1-15.7 12.5-26.2 15.2-53.5 7.9-81.7-7.1-27.4-22.4-49.3-45-66.2-21.1-15.9-45-23.5-75.8-23.9z"/><path d="m179.5 175.7v26c0 3.8-2.2 6.8-5.5 7.9-3.4 1.1-7.2.1-9.2-2.9-.9-1.4-1.6-3.3-1.7-5-.1-11.2-.1-22.3 0-33.5 0-5 3.1-7.6 8.5-8.5 4-.7 8.1-1.4 11.6-3.2 9.4-4.7 14.2-15.5 12.2-26.2-1.9-9.9-10.6-18-20.7-19.3-14.5-1.8-26.8 8.3-27.8 22.9-.4 6.1-3.3 9.5-8.2 9.6s-8.5-3.6-8.4-8.7c.2-20.8 16.9-39 37.2-40.4 22-1.6 41 13 44.4 34 3.5 21.6-9.2 41.2-30.4 46.9-.7 0-1.2.1-2 .4z"/><path d="m171.3 222.3c4.5 0 8.2 3.7 8.2 8.4 0 4.3-3.8 8-8.2 8.1-4.5 0-8.2-3.7-8.2-8.4-.1-4.4 3.7-8.1 8.2-8.1z"/></svg>