<svg enable-background="new 0 0 351 328" viewBox="0 0 351 328" xmlns="http://www.w3.org/2000/svg"><path d="m331.7 131.7c-1.1 6.1-1.8 12.2-3.3 18.2-3.9 15.8-11.6 29.8-21.3 42.8-14.9 20-33.1 36.9-51.8 53.2-22.1 19.2-44.3 38.3-66.4 57.4-8.5 7.3-17.7 7.6-25.9.5-28.9-25-57.8-50-86.3-75.4-14.7-13.1-27.8-27.6-38.6-44.2-19.2-29.7-24.5-61.6-12.3-95 11-30.3 32.4-50.1 64.6-56.3 33.3-6.4 60.1 5.5 81.5 31.2 1.2 1.4 2.2 2.9 3.7 4.7 1.3-1.7 2.4-3.2 3.6-4.6 12.4-15.1 27.4-26.2 46.7-30.8 33.6-8 69.2 6.1 88.6 34.6 9.6 14.1 14.9 29.6 16.6 46.5.1 1.1.4 2.2.5 3.2.1 4.7.1 9.3.1 14z"/></svg>