<svg enable-background="new 0 0 351 328" viewBox="0 0 351 328" xmlns="http://www.w3.org/2000/svg"><path d="m224.9 302c-39.1 0-78.3 0-117.4 0-8.2-2.6-11.1-8.5-10.7-16.7.3-5.6.1-11.2.1-16.8 0-.8 0-1.7 0-2.6-7.4 0-14.4 0-21.4 0-1.5 0-3 0-4.5-.4-6.5-1.6-10.2-6.7-10.2-14.3 0-56.6 0-113.2 0-169.8 0-12.5 0-25 0-37.5 0-4.1.9-7.9 4.1-10.6 1.9-1.6 4.3-2.6 6.5-3.8h172.1c8 2.6 11.1 8.3 10.7 16.5-.3 5.7-.1 11.4-.1 17 0 .8.1 1.7.1 2.6h21.3c9.3 0 14.7 5.3 14.7 14.7v154.6c0 9.6-3.6 17.8-10.5 24.5-11.3 10.8-22.7 21.6-34.3 32.2-2.6 2.4-5.7 4.5-8.9 6.1-3.7 1.8-7.7 2.9-11.6 4.3zm-.2-10.2c0-1.2 0-2.2 0-3.3 0-9.6 0-19.2 0-28.7 0-2.1.1-4.3.6-6.3 2.2-8.6 9-13.7 18.1-13.8 10.5-.1 21.1 0 31.6 0 5.3 0 5.3 0 5.3-5.5 0-51 0-102 0-153 0-5.1-.7-5.8-5.9-5.8-54 0-108 0-162 0-5.1 0-5.8.7-5.8 5.9v205.1c0 5.1.7 5.7 5.6 5.7h107c1.8 0 3.5-.2 5.5-.3zm19.7-226.2c0-6.9 0-13.5 0-20 0-5.7-.5-6.3-6.2-6.3-53.8 0-107.6 0-161.5 0-.9 0-1.8 0-2.7.1-2.1.2-3.2 1.3-3.3 3.4v2.9 189.7 16c0 3.6 1 4.6 4.6 4.7h14.6 7c0-1.4 0-2.5 0-3.5 0-57.1.1-114.2-.1-171.4 0-9.2 5.5-15.7 15.7-15.7 42.7.3 85.3.1 128 .1zm31.1 184.1c-1-.2-1.3-.3-1.5-.3-10.3 0-20.5-.1-30.8 0-5.6.1-8.7 3.5-8.8 9.1v27.1c0 .6.1 1.1.2 2.5 13.9-12.9 27.2-25.4 40.9-38.4z"/><path d="m193.6 121.4c-14.7 0-29.4 0-44 0-.5 0-1.1 0-1.6 0-4.4 0-6.8-1.8-6.8-5s2.5-5 6.8-5h91.3c1 0 2.1.1 3.1.4 2.4.6 3.5 2.4 3.5 4.7 0 2.2-1.2 3.9-3.5 4.5-1.2.3-2.4.4-3.7.4-15 0-30.1 0-45.1 0z"/><path d="m193.4 154.2c-15.1 0-30.2 0-45.4 0-4.6 0-6.8-1.6-6.9-4.8-.1-3.3 2.3-5 7-5h91c1 0 2 0 2.9.2 2.4.5 4 2.6 3.8 5-.1 2.3-1.7 4.1-4.2 4.5-1 .1-2.1.1-3.2.1-14.9 0-29.9 0-45 0z"/><path d="m193.6 187c-15.5 0-31 0-46.4 0-3.3 0-5.1-1.1-5.7-3.6-.8-2.8.9-5.5 3.7-6 1-.2 2.1-.2 3.2-.2h90.5c1 0 2 0 2.9.1 2.5.3 4.2 2.2 4.3 4.6s-1.6 4.5-4 4.9c-.9.2-1.9.1-2.9.1-15.4.1-30.5.1-45.6.1z"/><path d="m172.3 219.9c-8.4 0-16.8 0-25.2 0-4.5 0-7.2-3.5-5.5-7 1.2-2.4 3.4-2.9 5.8-2.9h20.4 28.4c1.2 0 2.5.1 3.7.4 2.1.6 3.2 2.1 3.3 4.3.1 2.3-1 4-3.1 4.7-1.1.4-2.4.5-3.6.5-8.1 0-16.1 0-24.2 0z"/></svg>