<svg enable-background="new 0 0 175.6 200" viewBox="0 0 175.6 200" xmlns="http://www.w3.org/2000/svg"><path d="m88 120c15.7 0 31.4-.1 47.1 0 20.8.2 36.7 13.4 39.8 33.4 1 6.6.5 13.5.6 20.2.1 5.7.1 11.5 0 17.2-.1 6-2.8 9-8.1 8.9-5-.1-7.8-3.1-7.8-8.9-.1-9.8 0-19.5 0-29.2 0-15.2-10.4-25.7-25.5-25.8-30.9 0-61.9 0-92.8 0-14.9 0-25.4 10.6-25.4 25.5 0 10 .1 20 0 30-.1 6.3-4.7 9.8-10.5 8.1-2.9-.8-5.1-2.8-5.1-5.8 0-14-.9-28.1.9-41.9 2.3-18.2 18.4-31.3 36.8-31.7 16.6-.2 33.3.1 50 0z"/><path d="m87.8 0c27.2 0 47.8 20.7 47.9 47.9s-21 48.3-48.1 48.1-47.8-21-47.8-48.2 20.8-47.8 48-47.8zm-.2 79.8c17.7.1 32.1-14.1 32.2-31.8s-14.1-32-31.8-32.2c-17.7-.1-32.1 14.2-32.2 31.8v.1c-.1 17.7 14.1 32 31.8 32.1z"/></svg>