<svg enable-background="new 0 0 351 328" viewBox="0 0 351 328" xmlns="http://www.w3.org/2000/svg"><path d="m302 119.4h-253c-8.6 0-15.5-7-15.5-15.5v-2.9c0-8.6 7-15.5 15.5-15.5h253c8.6 0 15.5 7 15.5 15.5v2.9c0 8.5-7 15.5-15.5 15.5z"/><path d="m302 183.4h-253c-8.6 0-15.5-7-15.5-15.5v-2.9c0-8.6 7-15.5 15.5-15.5h253c8.6 0 15.5 7 15.5 15.5v2.9c0 8.5-7 15.5-15.5 15.5z"/><path d="m302 247.4h-253c-8.6 0-15.5-7-15.5-15.5v-2.9c0-8.6 7-15.5 15.5-15.5h253c8.6 0 15.5 7 15.5 15.5v2.9c0 8.5-7 15.5-15.5 15.5z"/></svg>