<svg enable-background="new 0 0 351 328" viewBox="0 0 351 328" xmlns="http://www.w3.org/2000/svg"><path d="m27.6 44.6c3.4-5.1 6-5.9 11.7-3.4 8.9 3.9 17.8 7.8 26.7 11.6 5.8 2.4 9 6.5 10.1 12.7.9 5.4 2.3 10.8 3.2 16.2.4 2.4 1.5 3 3.8 3 70-.1 140 0 210-.1 4.2 0 8.3.5 11.5 3.5 3.9 3.6 5.5 8 4.4 13.2-3.6 17.8-7.3 35.5-10.9 53.3-2.7 12.9-5.4 25.8-8 38.8-1.8 8.8-6.7 12.9-15.7 12.9-55.1 0-110.3 0-165.4 0-1.2 0-2.4 0-3.9 0 1.4 6.7 2.7 13.1 4 19.7h3.7 159.9c3 0 5.9.3 7.8 3.1 2.9 4.1.6 9.8-4.4 10.6-1.2.2-2.4.2-3.6.2-53.7 0-107.3 0-161 0-9.8 0-14.4-3.7-16.4-13.4-10.8-52.5-21.6-105-32.4-157.4-.4-2-1.2-3.1-3.2-3.9-8.7-3.6-17.3-7.5-26-11.1-2.9-1.2-5-3-6-5.9.1-1.4.1-2.5.1-3.6zm248.6 147.7c6.5-31.4 12.9-62.5 19.3-93.6-71 0-141.6 0-212.4 0 .1.8.1 1.4.2 1.9 6.1 29.5 12.2 59 18.2 88.5.5 2.6 1.6 3.2 4.1 3.2 55.8-.1 111.5-.1 167.3-.1 1 .1 2 .1 3.3.1z"/><path d="m208 275.7c0-13.6 11.1-24.7 24.6-24.7s24.6 11 24.8 24.6c.2 13.4-11.4 25-24.8 24.9-13.5-.1-24.6-11.2-24.6-24.8zm13.8 0c0 6.1 5 11.1 11 11 5.9-.1 10.8-5 10.8-10.9 0-6-5-11-11-10.9-6 0-10.8 4.8-10.8 10.8z"/><path d="m121.1 275.8c-.1-13.5 11-24.7 24.5-24.8s25 11.3 24.9 24.8-11.3 24.7-24.8 24.7c-13.4 0-24.6-11.1-24.6-24.7zm13.8 0c0 6 4.8 10.8 10.8 10.9s11-5 11-11c0-5.9-4.9-10.8-10.8-10.9-6.1-.1-11 4.9-11 11z" opacity=".95"/></svg>