<svg enable-background="new 0 0 351 379.1" viewBox="0 0 351 379.1" xmlns="http://www.w3.org/2000/svg"><path d="m185.8 353.9c-6.8 0-13.7 0-20.5 0-.7-.2-1.4-.5-2.1-.5-31.1-2.4-59.5-12.6-84.5-31.2-35.2-26.1-56.9-60.8-64.9-104-1.1-6.1-1.7-12.2-2.6-18.4 0-6.8 0-13.7 0-20.5.5-3.9.9-7.8 1.4-11.7 4.7-33.4 18.1-62.9 40.8-87.9 25.4-28 56.8-45.5 94.1-52 5.9-1 11.8-1.7 17.7-2.5h20.5c.8.2 1.6.5 2.5.5 27.8 2.1 53.6 10.6 76.8 26.1 39.4 26.3 63.7 62.7 72.3 109.4 1.1 6 1.7 12 2.5 18.1v20.5c-.2.8-.5 1.6-.5 2.5-2.4 31-12.7 59.2-31.2 84.2-26.1 35.2-60.8 56.9-104 64.9-6 1.1-12.2 1.7-18.3 2.5zm-158.2-164.7c-.2 81.7 65.7 147.9 147.6 148.2 81.6.3 148-65.9 148.1-147.7.1-81.7-66-147.9-147.8-148-81.5-.1-147.6 65.8-147.9 147.5z"/><path d="m183.8 197.8v10 38.2c0 6-3.7 9.6-9.1 9.1-4.5-.4-7.4-3.9-7.4-9.2 0-14.8 0-29.5 0-44.3 0-1.1 0-2.3 0-3.8-1.5 0-2.6 0-3.7 0-14.8 0-29.5 0-44.3 0-5.2 0-8.7-2.7-9.3-7-.7-5.5 3-9.4 9-9.5 14.8-.1 29.5 0 44.3 0h4c0-1.3 0-2.5 0-3.6 0-14.9 0-29.7 0-44.6 0-5.3 3-8.8 7.5-9.1 5.4-.4 9 3.2 9 9.2v44.3 3.8h3.7 44.3c5.2 0 8.7 2.7 9.3 7 .7 5.5-3 9.5-9 9.5-14.8.1-29.5 0-44.3 0-1.2 0-2.4 0-4 0z"/></svg>