<svg enable-background="new 0 0 351 379.1" viewBox="0 0 351 379.1" xmlns="http://www.w3.org/2000/svg"><path d="m281.3 334.9c-1.7-2.5-3.3-5.1-4.9-7.6 72.5-59.1 76.6-162.6 16.9-226.4-60.5-64.7-158.8-67-222.2-5.6-65.9 63.8-62.3 173.6 11.5 232-.6 1-1.2 2-1.9 3-4.8 7.4-9.7 14.7-14.4 22.2-3.6 5.6-1.9 12.3 3.8 15.4.7.4 1.5.9 2.2 1.3h5.3c3.7-1.4 6.1-4 8.2-7.3 4.7-7.5 9.7-14.9 14.4-22.3 53 28.8 105.7 28.9 158.7 0 4.6 7.2 9.4 14.4 14.1 21.8 2.2 3.4 4.6 6.4 8.6 7.8h4.6c9.3-4.5 10.8-10.2 5.1-19.1-3.4-5-6.7-10.1-10-15.2zm-54.1-64.7c-1.4 8.6-11.2 11.9-18.1 6-9-7.7-17.8-15.5-26.7-23.3-4.6-4-9-8.2-13.7-11.9-4.1-3.3-5.7-7.2-5.6-12.4.2-14.3.1-28.7.1-43 0-15.1 0-30.2 0-45.4 0-5.6 4-10 9.4-10.7 5.1-.7 10.2 2.8 11.5 7.9.4 1.6.4 3.3.4 4.9v80.4c0 2.4.6 4 2.5 5.7 11.9 10.3 23.8 20.8 35.7 31.1 3.2 2.9 5.3 6.3 4.5 10.7z"/><path d="m30.7 57.4c.8 4.9 2.9 8.3 7 10.1 4.5 2 8.7 1.2 12.2-2.3 12.6-12.8 26.8-23.5 42.5-32.2 5.7-3.1 7.4-9.4 4.5-14.7-2.9-5.2-9.3-6.9-14.9-3.9-17.6 9.5-33.4 21.4-47.3 35.8-1.8 1.9-2.7 4.7-4 7.2zm289.6-1.3c-.7-1.2-1.6-4.1-3.4-6-13.9-14.4-29.7-26.3-47.3-35.7-2.2-1.1-5.1-1.5-7.6-1.2-4.7.6-7.8 4.3-8.5 8.9-.6 4.2 1.8 8.4 5.8 11 8.8 5.7 17.7 11.2 26.1 17.4 6 4.4 11.2 9.9 16.8 14.9 3.6 3.2 7.6 4 11.9 2 4.1-1.8 6.1-5.2 6.2-11.3z" fill="#fff"/><path d="m30.7 57.4c1.3-2.4 2.2-5.3 4-7.2 13.9-14.4 29.7-26.3 47.3-35.8 5.6-3 12-1.3 14.9 3.9 2.9 5.3 1.2 11.6-4.5 14.7-15.7 8.7-29.9 19.4-42.6 32.1-3.5 3.5-7.7 4.3-12.2 2.3-4-1.8-6.1-5.1-6.9-10z"/><path d="m320.3 56.1c-.1 6.1-2.1 9.5-6.2 11.4-4.3 2-8.4 1.2-11.9-2-5.6-5-10.8-10.5-16.8-14.9-8.4-6.2-17.3-11.7-26.1-17.4-4.1-2.6-6.5-6.8-5.8-11 .7-4.6 3.8-8.3 8.5-8.9 2.5-.3 5.4.1 7.6 1.2 17.7 9.4 33.5 21.3 47.3 35.7 1.9 1.8 2.8 4.6 3.4 5.9z"/></svg>