<svg enable-background="new 0 0 351 328" viewBox="0 0 351 328" xmlns="http://www.w3.org/2000/svg"><path d="m217.1 17.8c22.5.1 40 15 43.1 37.2.8 5.9.5 12 .5 18v169.8c0 9 .1 18.1-.2 27.1-.6 19.5-16.2 36.8-35.5 39.7-.7.1-1.4.4-2.1.6-31.6 0-63.2 0-94.8 0-3.2-.8-6.5-1.5-9.6-2.6-16.6-5.9-27.6-20.9-28.1-38.5-.3-9.9-.1-19.8-.1-29.7 0-54.3 0-108.7 0-163 0-7.7-.3-15.5.7-23.1 2.6-19.6 20.2-35.1 40.2-35.4zm31.4 61.2c-48.8 0-97.4 0-145.9 0v157.9h145.9c0-52.7 0-105.2 0-157.9zm-146.1 170.3v17.1c0 18.1 12.8 31.5 30.8 31.6 28.2.2 56.3.2 84.5 0 16.3-.1 28.7-11.1 30.5-27.1.8-6.9.2-14.1.2-21.1 0-.1-.2-.3-.4-.5-48.3 0-96.8 0-145.6 0zm.2-183h145.7c2.2-21.3-11.3-36.3-32.3-36.3-27 0-54 0-81 0-2.8 0-5.7.1-8.5.8-16.2 3.5-25.8 17.8-23.9 35.5z"/><path d="m175.5 261.5c6.8 0 12.1 5.4 12 12.2 0 6.8-5.4 12.1-12.2 12-6.8 0-12.1-5.4-12-12.2.1-6.7 5.5-12 12.2-12z"/><path d="m175.1 54.3c-5.9 0-11.8.1-17.7 0-3.4-.1-5.6-2-6.1-4.9-.5-2.8.7-5.5 3.3-6.6 1.1-.5 2.4-.6 3.6-.6 11.5 0 23-.1 34.5 0 4.4 0 7.1 2.5 7.1 6.1-.1 3.6-2.8 6-7.2 6-5.9.1-11.7.1-17.5 0z"/><path d="m218.3 42.3c3.3 0 6 2.6 6.1 5.9.1 3.2-2.7 6-5.9 6.1-3.3.1-6.3-2.8-6.2-6.1 0-3.3 2.7-5.9 6-5.9z"/></svg>