<svg enable-background="new 0 0 351 328" viewBox="0 0 351 328" xmlns="http://www.w3.org/2000/svg"><circle cx="175.5" cy="164" fill="#fb8a01" r="146.5"/><g fill="#fff"><path d="m232.6 168.4v86c0 7.4-4 11.4-11.5 11.4-30.4 0-60.8 0-91.2 0-7.3 0-11.4-4.1-11.4-11.3 0-57.5 0-114.9 0-172.4 0-7.3 4.1-11.3 11.4-11.3h91.4c7.2 0 11.3 4.1 11.3 11.2zm-106.2-67.9v126.2h98.2c0-42.1 0-84.1 0-126.2-32.7 0-65.4 0-98.2 0zm-.1 134.2v20c0 2.6.7 3.3 3.4 3.3h18.4 72.8c3.4 0 3.9-.5 3.9-4 0-5.8 0-11.6 0-17.3 0-.6 0-1.3 0-2-32.9 0-65.6 0-98.5 0zm0-142.2h98.5c0-3.4 0-6.7 0-10s-.5-3.9-3.8-3.9c-30.3 0-60.5 0-90.8 0-.5 0-.9 0-1.4 0-1.5.1-2.4.9-2.5 2.4-.1 3.8 0 7.6 0 11.5z"/><path d="m175.6 250.2h9.8c2.5 0 4.2-1.6 4.2-3.9 0-2.2-1.7-3.9-4.2-3.9-6.4 0-12.8 0-19.1 0-2.6 0-4.4 1.7-4.3 4 .1 2.2 1.8 3.8 4.3 3.8z"/><path d="m179.9 203.8c-.5 4.6-1.5 6.1-4.1 6.2-2.5 0-3.6-1.5-4.1-6.2-.9 0-1.8 0-2.8 0-5.6-.2-9.9-4.6-9.8-10 0-2.5 1.6-4.3 3.8-4.3 2.2-.1 3.8 1.5 4 3.9.1 1.9 1 2.7 2.9 2.6h8.8c3.5-.1 5.9-2.4 5.9-5.7s-2.4-5.5-5.9-5.6c-2.7-.1-5.4.1-8-.2-6.8-.9-11.5-6.4-11.4-13.1 0-6.7 4.8-12.1 11.6-13.1.4-.1.7-.1 1.1-.2.8-5 1.6-6.2 4.2-6.1 2.5 0 3.4 1.3 4.1 6.3.9 0 1.9-.1 2.8 0 5.1.3 9.2 4.8 9.2 9.9 0 2.4-1.6 4.1-3.8 4.2-2.1.1-3.8-1.4-4-3.7-.2-1.9-1.1-2.6-2.9-2.6-2.9 0-5.9 0-8.8 0-3.3.1-5.5 2.2-5.6 5.3s2.2 5.5 5.5 5.6c2.3.1 4.6 0 6.8 0 7 .2 12.4 5.4 13 12.5.6 6.7-4.1 12.8-10.9 14.1-.7 0-1.1.1-1.6.2z"/><path d="m175.6 114.4c9.3.2 17.4 3.4 24.2 9.8 1.6 1.5 2 3.3 1.1 4.9s-2.3 2.4-4 2c-.8-.2-1.7-.6-2.3-1.2-10.7-10.3-27.6-10.2-38.1 0-1.9 1.9-4.3 1.8-5.9.2-1.6-1.7-1.4-4 .6-5.9 6.8-6.4 15-9.6 24.4-9.8z"/><path d="m175.4 133.2c4.3.1 8 1.5 11.1 4.3 2 1.8 2.2 4.1.7 5.8s-3.7 1.7-5.7.1c-4.1-3.3-7.9-3.3-12 0-2 1.6-4.3 1.5-5.7-.1-1.5-1.7-1.3-4 .6-5.7 3.1-2.9 6.9-4.3 11-4.4z"/><path d="m175.6 250.2c-3.1 0-6.3 0-9.4 0-2.5 0-4.3-1.6-4.3-3.8-.1-2.3 1.7-4 4.3-4h19.1c2.5 0 4.2 1.7 4.2 3.9 0 2.3-1.7 3.9-4.2 3.9-3.2 0-6.5 0-9.7 0z"/></g></svg>