<svg enable-background="new 0 0 202.1 276.6" viewBox="0 0 202.1 276.6" xmlns="http://www.w3.org/2000/svg"><path d="m69.8 276.6c-4.9-1-9.9-1.7-14.7-3-32.2-9.2-54.6-38.5-54.9-72-.2-34.6 0-69.1 0-103.7 0-5.7 3.2-8.9 8.9-8.9 11.3-.1 22.7 0 34 0h3.5v-3.1c0-11.1.3-22.2-.1-33.2-1-26.3 17.5-44.2 37.2-50 3.8-1.1 7.7-1.8 11.5-2.6h11.8c4 .9 8.1 1.5 12 2.8 18.8 6.4 31.5 18.6 35.8 38.6.6 3 .8 6.1.8 9.1.1 11.7 0 23.4 0 35.1v3.3h3.5 33.5c6.5 0 9.6 3.1 9.6 9.6v101c-.1 39-26.9 70.3-65.4 76.4-1.4.2-2.8.5-4.2.7zm116.1-171.3h-169.6v2.1 94c0 2.9.3 5.8.7 8.6 5.1 29.8 29.6 50.4 59.8 50.4h48.6c3.4 0 6.8-.2 10.2-.8 30-5.4 50.2-29.7 50.2-60.2 0-30.3 0-60.7 0-91v-3.1zm-46.5-16.6v-38.4c0-9.9-3.9-18-11.4-24.4-13-11.2-33.5-13-48.2-4.1-11.3 6.8-17.4 16.5-17.1 30 .2 11.3 0 22.7.1 34 0 1 .1 1.9.1 2.8z"/><path d="m93 182.9c0-5.4 0-10.8 0-16.2 0-5.2 3.5-8.9 8.2-8.8s8 3.8 8 8.8v32.4c0 5.1-3.4 8.6-8.1 8.6s-8.1-3.6-8.1-8.7c-.1-5.4 0-10.7 0-16.1z"/></svg>