<svg enable-background="new 0 0 351 328" viewBox="0 0 351 328" xmlns="http://www.w3.org/2000/svg"><circle cx="175.5" cy="163.5" fill="#fb8a01" r="146.5"/><path d="m258 115.5c-13.6-43.1-56.8-66.9-101-57.4-38.5 8.3-66.6 41.4-68.6 80.7-1.3 21 5.2 41.8 18.3 58.3 15.4 19.8 30.9 39.5 46.4 59.2 7.4 9.4 14.7 18.7 22.3 28.3.7-.8 1.2-1.3 1.6-1.9 22.3-28.5 44.8-56.8 66.9-85.4 19-24.6 23.4-52.3 14.1-81.8zm-82.6 75c-25.9 0-46.9-21-46.9-46.9 0 0 0 0 0-.1.1-25.9 21-46.8 46.9-46.8s46.9 21 46.9 46.9-21 46.9-46.9 46.9z" fill="#fff"/></svg>