<svg enable-background="new 0 0 351 328" viewBox="0 0 351 328" xmlns="http://www.w3.org/2000/svg"><path d="m20 173.6c2.1-3.3 3.9-6.9 6.3-10 17.7-21.9 37.8-41.3 61.2-57 21-14.1 43.5-24.7 68.8-28.1 19-2.6 37.7-.4 55.8 5.5 7.8 2.5 15.3 6.1 22.8 9.4 2.2 1 3.3 1 5.1-.8 14.6-14.7 29.3-29.4 44-44.1 2.7-2.7 5.7-4.4 9.5-4 4.4.5 7.6 2.8 9.2 7 1.6 4.4.6 8.4-2.7 11.7-10.6 10.6-21.2 21.2-31.8 31.8-3.6 3.6-7.2 7.1-11 11 1.2.9 2.3 1.7 3.4 2.5 23.2 16.5 43.6 36 61.1 58.5 4.5 5.8 4.7 10.4.2 16.2-21.7 27.7-47 51.4-77.5 69.1-21.4 12.4-44.3 20.5-69.3 20.8-18.6.2-36.5-3.6-53.6-10.7-3.9-1.6-7.8-3.5-11.5-5.5-1.8-1-2.9-.7-4.3.7-14.7 14.8-29.5 29.5-44.2 44.3-3 3-6.4 4.7-10.7 3.8-8-1.5-11.6-11.1-6.4-17.4 1.6-2 3.6-3.7 5.4-5.6l38.4-38.4c-1-.8-1.9-1.5-2.8-2.1-22.9-16.2-43.1-35.3-60.4-57.5-1.9-2.4-3.1-5.2-4.7-7.8-.3-.9-.3-2.1-.3-3.3zm106.8 31.7c-15.8-25.9-7.8-53.2 7-68.2 13.7-14 41.7-24.1 68.3-7.5 6.2-6.3 12.4-12.5 18.6-18.6-.2-.1-.7-.4-1.3-.7-13.9-6.6-28.5-10.4-43.9-10.9-20.6-.8-39.5 5.2-57.6 14.6-20.8 10.8-38.8 25.4-55.3 41.9-6.2 6.2-12 12.9-18.1 19.4 17.3 20.9 36.8 38.6 58.8 53.2 8-7.9 15.7-15.5 23.5-23.2zm-2.7 34.6c14.3 7.1 29.5 11.1 45.4 11.7 20.5.8 39.4-5.2 57.3-14.4 20.9-10.8 39-25.4 55.5-42.1 6.2-6.2 12-12.9 18-19.4-17.3-20.9-36.8-38.6-58.8-53.2-7.9 7.9-15.6 15.6-23.3 23.3 15.6 25.7 7.9 52.8-7.1 68.1-13.3 13.6-41.3 24.3-68.6 7.4-6 6.1-12.1 12.2-18.4 18.6zm61.7-94.1c-12.9-6-27.8-3-37.6 7.8-8.8 9.6-11 25-5.2 35zm15.9 15.5c-14.6 14.5-28.9 28.8-43.3 43.2 10.9 6.3 26.2 4.1 35.9-4.7 10.8-9.9 13.8-24.8 7.4-38.5z"/></svg>