<svg enable-background="new 0 0 351 328" viewBox="0 0 351 328" xmlns="http://www.w3.org/2000/svg"><path d="m166.8 27.9h17.6c.7.2 1.4.4 2.1.4 29.3 2.3 55.5 12.4 78 31.3 39.5 33.3 56.7 76.2 50.5 127.4-4.5 37.4-22.3 68.3-52 91.7-31.1 24.6-66.8 34.3-106.1 29.2-28.7-3.7-54-15.5-75.5-35-24-21.8-38.8-48.8-44.4-80.7-.9-5.1-1.4-10.3-2.1-15.5 0-5.7 0-11.4 0-17 .9-6.2 1.6-12.5 2.7-18.7 10.4-55.9 57.2-101.6 113.4-110.9 5.3-.8 10.5-1.4 15.8-2.2zm40.2 150.8c33.1 13 53.7 36.6 62 71.2 43.7-54.2 38.5-127.4-11-172.5-50.3-45.9-129.1-41.6-173.9 8.9-45.3 51-38.4 121.1-1.8 162.7 8.4-34.1 29.1-57.4 61.8-70.3-28.3-20.5-30.3-58.5-9.7-81.4 20.5-22.8 54.9-25.1 77-5.5 11.4 10.2 18.1 22.8 19 38 1.2 20.5-7.3 36.6-23.4 48.9z"/></svg>