<svg enable-background="new 0 0 351 328" viewBox="0 0 351 328" xmlns="http://www.w3.org/2000/svg"><path d="m288.5 189.3v3.9 80.7c0 19.4-13.2 32.5-32.5 32.6-14.2 0-28.4 0-42.6 0-6.9 0-10-3.2-10-10.2 0-21.4 0-42.8 0-64.2 0-10.1-5.7-15.7-15.8-15.8-8 0-16.1 0-24.1 0-9.4 0-15.2 5.8-15.2 15.2v64.4c0 7.3-3.1 10.4-10.3 10.5-14.2 0-28.4 0-42.6 0-19 0-32.2-13.3-32.2-32.3 0-27 0-54 0-81 0-1.1 0-2.2 0-3.8-1.3 0-2.5 0-3.6 0-11.5-.1-21.1-6.1-25.1-16.4-4.2-10.9-2.1-20.8 6.1-29.1 17.6-17.8 35.4-35.4 53.1-53.1 20.7-20.7 41.8-41.2 62.1-62.3 10.5-10.9 29.6-10.9 40.2-.1 38 38.7 76.5 77 115.1 115.2 12 11.8 10.4 33.8-4.6 42.2-4 2.2-8.2 3.6-12.8 3.6-1.8.1-3.4 0-5.2 0z"/></svg>