<svg viewBox="0 0 240.52 240.43" xmlns="http://www.w3.org/2000/svg"><path d="m240.52 113.13v14.1c-.14.82-.32 1.65-.43 2.48-.57 4.34-.9 8.72-1.72 13a117.38 117.38 0 0 1 -32.59 61.95 117.25 117.25 0 0 1 -64.78 33.92c-4.53.78-9.11 1.24-13.67 1.85h-14.08c-.69-.14-1.37-.3-2-.4-6.56-1-13.23-1.57-19.66-3.11-61.75-14.78-101.5-76.79-89.43-139.21 5-25.95 17.14-48.07 36.66-65.84 27.84-25.36 60.74-35.48 98-30.74 23.75 3 44.67 12.77 62.61 28.61 21.13 18.67 34.35 41.9 39.21 69.75.82 4.51 1.28 9.09 1.88 13.64zm-120.31-99.13c-58.53.09-106.21 47.84-106.06 106.32a106.14 106.14 0 0 0 212.28-.16c-.02-58.52-47.74-106.16-106.22-106.16z"/><path d="m127.43 131.94c.66-.22 1.1-.39 1.55-.51 18.29-4.93 29.24-21.79 26.22-40.38-2.94-18.05-19.33-30.61-38.27-29.26-17.47 1.21-31.93 16.93-32.05 34.84 0 4.38 3.06 7.58 7.25 7.51s6.74-3 7.1-8.24a21.15 21.15 0 0 1 41.82-3.09c1.74 9.25-2.35 18.54-10.47 22.59a36.3 36.3 0 0 1 -10 2.77c-4.59.78-7.25 3.09-7.28 7.36-.08 9.62-.09 19.24 0 28.86a8.61 8.61 0 0 0 1.42 4.34 6.82 6.82 0 0 0 7.93 2.49 7.09 7.09 0 0 0 4.76-6.85c.05-7.43.02-14.85.02-22.43zm-7.09 40.15a7 7 0 0 0 -7.08 6.91 7.08 7.08 0 1 0 7.08-6.91z" fill="#fff"/><path d="m127.43 131.94v22.43a7.09 7.09 0 0 1 -4.76 6.85 6.82 6.82 0 0 1 -7.93-2.49 8.61 8.61 0 0 1 -1.42-4.34c-.13-9.62-.12-19.24 0-28.86 0-4.27 2.69-6.58 7.28-7.36a36.3 36.3 0 0 0 10-2.77c8.12-4.05 12.21-13.34 10.47-22.59a21.15 21.15 0 0 0 -41.84 3.09c-.36 5.28-2.86 8.17-7.1 8.24s-7.28-3.13-7.25-7.51c.12-17.91 14.58-33.63 32.05-34.84 18.94-1.35 35.33 11.21 38.27 29.26 3 18.59-7.93 35.45-26.22 40.38-.45.12-.89.29-1.55.51z"/><path d="m120.34 172.09a7.07 7.07 0 1 1 -7.08 6.91 7 7 0 0 1 7.08-6.91z"/></svg>