<svg enable-background="new 0 0 351 328" viewBox="0 0 351 328" xmlns="http://www.w3.org/2000/svg"><path d="m82.4 316.8c-2.6-1-5.3-1.7-7.7-3-8.7-4.6-13.3-12-13.7-21.9-.2-4.4 0-8.7 0-13.1 0-80.2 0-160.5 0-240.7 0-14.1 8.6-24.4 22-26.6 1.7-.3 3.4-.3 5.1-.3 43.4 0 86.7 0 130.1-.1 3.2 0 5.7 1 7.9 3.3 20.3 20.4 40.6 40.7 61 61 2.2 2.2 3.2 4.6 3.2 7.7-.1 68.8 0 137.6 0 206.4 0 14-7.1 23.2-20.8 26.7-.3.1-.5.3-.7.5-62.3.1-124.3.1-186.4.1zm131.3-292.7c-1.1-.1-1.7-.1-2.2-.1-41.4 0-82.7 0-124.1 0-8.7 0-13.7 5.4-13.7 14.5v251.1c0 9.4 5.1 14.5 14.6 14.5h174.5c9.6 0 14.7-5.1 14.7-14.8 0-66.1 0-132.2 0-198.3 0-1.1 0-2.1 0-3.3-1.5 0-2.6 0-3.7 0-11.4 0-22.9.1-34.3 0-14.6-.1-25.6-11.2-25.7-25.8-.1-10.6 0-21.3 0-31.9-.1-1.9-.1-3.8-.1-5.9zm12.7 9.6c0 9.4-.1 18.5 0 27.6.1 8.3 5.4 13.6 13.7 13.6 8.6.1 17.1 0 25.7 0 .6 0 1.2-.2 1.6-.3-13.7-13.5-27.2-27.1-41-40.9z"/><path d="m175.5 151.3h67.4c1.1 0 2.2 0 3.3.1 3.3.3 5.7 2.9 5.8 6.1s-2.3 5.9-5.5 6.4c-.9.1-1.8.1-2.7.1-45.4 0-90.8 0-136.2 0-1.4 0-2.8-.1-4.1-.5-2.8-.9-4.5-3.7-4.2-6.5.3-3 2.6-5.3 5.6-5.6 1.1-.1 2.2-.1 3.3-.1z"/><path d="m175.8 189.5h66.8c1.1 0 2.2 0 3.3.1 3.5.3 6 2.9 6 6.2s-2.5 6-5.9 6.4c-.9.1-1.8 0-2.7 0-45.2 0-90.4 0-135.6 0-.9 0-1.8 0-2.7 0-3.4-.4-5.9-3.1-5.9-6.4s2.5-6.1 6-6.2c5.7-.2 11.3-.1 17-.1z"/><path d="m175.7 227.7h67.1c1.1 0 2.2 0 3.3.1 3.3.3 5.7 2.9 5.8 6.1s-2.3 6-5.5 6.4c-1 .1-2 .1-3 .1-45.3 0-90.6 0-135.9 0-1.4 0-2.8-.1-4.1-.5-2.8-.9-4.5-3.6-4.2-6.5.3-3 2.6-5.3 5.6-5.6 1.1-.1 2.2-.1 3.3-.1z"/><path d="m111.5 125.8c-2.1 0-4.1.1-6.1 0-3.6-.2-6.2-2.9-6.2-6.3s2.6-6.1 6.2-6.3c3.9-.1 7.8 0 11.6-.1 4.6-.1 7.5-2.5 7.5-6.3.1-3.6-2.6-6.2-7-6.5-9.5-.8-16.2-6.5-18-15.4-1.7-8.4 2.3-16.4 10.5-20.8.8-.4 1.6-1.2 1.8-2 1.2-4.4 2.8-6.1 6.1-6.2 3.4-.2 5.2 1.4 6.7 5.5.1.2.2.3.5.7h5.1c4.3.1 7.1 2.7 7.1 6.5 0 3.7-2.8 6.3-7.2 6.3-3.8.1-7.6 0-11.3 0-4.1.1-6.9 2.6-6.9 6.2s2.7 6.2 6.8 6.4c9.4.6 16.3 6.4 18.2 15.2 1.8 8.6-2.1 16.6-10.4 21.1-.8.4-1.6 1.4-1.8 2.3-1 3.7-2.9 5.8-6.1 6-3.1.2-5.4-1.7-6.6-5.3-.1-.2-.3-.5-.5-1z"/><path d="m143.6 278.6c-12.4 0-24.8 0-37.3 0-5.5 0-8.7-4.7-6.5-9.2 1.3-2.6 3.6-3.5 6.4-3.5h28 46.8c4.3 0 6.9 2.3 7.1 6 .2 4-2.6 6.7-7 6.7-12.5 0-25 0-37.5 0z"/><path d="m207.5 125.8c-12.5 0-25 0-37.6 0-4.3 0-7-2.6-7-6.4 0-3.3 2.3-5.9 5.6-6.2 2.4-.2 4.8-.1 7.1-.1h67.1 3c3.6.2 6.2 2.9 6.2 6.3s-2.6 6.2-6.3 6.3c-4.6.1-9.1 0-13.7 0-8.2.1-16.3.1-24.4.1z"/></svg>