<svg enable-background="new 0 0 351 328" viewBox="0 0 351 328" xmlns="http://www.w3.org/2000/svg"><path d="m112.8 33.8c4.2 1.5 6 4.7 6.9 9 3.9 19.1 8 38.1 12.2 57.1.9 4.2.1 7.6-3.1 10.6-7.1 6.9-14.1 14-21.3 21.2 22.1 42.9 54.5 75.3 97.5 97.5l17.8-17.8c8-8 8-7.9 18.9-5.6 17.4 3.8 34.8 7.6 52.3 11.2 4.3.9 7.4 2.7 9 6.9v7.8c-.2 1.3-.4 2.5-.6 3.8-4 31-27.1 56.5-57.7 63.6-3.5.8-7.1 1.4-10.7 2-4.2 0-8.4 0-12.5 0-.5-.2-1-.3-1.5-.5-6.2-1.5-12.5-2.3-18.4-4.4-46-17-84.7-44.3-115.9-82.1-20.2-24.5-35.8-51.7-46.2-81.8-2-5.7-2.7-11.8-4-17.7 0-4 0-8 0-12 .2-.7.4-1.3.5-2 2.9-29.2 25-55.7 53.5-63.6 5.1-1.4 10.3-2.1 15.5-3.2z"/><path d="m177.6 33.8c5 .7 10 1.2 14.9 2.1 52.4 8.6 96.5 50.8 107.3 102.8 1.3 6.1 1.8 12.4 2.7 18.6.1.7.3 1.3.4 2v10.4c-.2.4-.4.7-.6 1.1-1.9 3.8-5.6 5.8-9.4 5-4-.8-6.7-4.1-6.7-8.5-.1-11.5-1.5-22.8-5.1-33.6-14.8-44.1-44.9-71.3-90.4-81-6.7-1.4-13.6-1.6-20.5-2.1-5-.3-8.4-2.6-9.2-6.8-.8-4 1.2-7.5 5.8-9.6.1-.1.2-.2.4-.4z"/><path d="m172 67.2c44.7.8 85.1 33.7 94.8 77.5 1.6 7.1 2.1 14.4 2.6 21.7.4 5.5-3.2 9.4-8.1 9.5s-8.4-3.7-8.5-9.2c-.8-38.6-26.4-71.1-63.7-80.2-6.4-1.6-13.2-1.8-19.9-2.5-4.4-.4-7.9-3.4-8.3-7.6s2.4-8.2 6.7-9c1.4-.2 2.9-.1 4.4-.2z"/><path d="m171.4 100.7c31.1.6 58.8 24.7 63.7 55.4.6 3.5.9 7.1 1 10.6.2 5.3-3.4 9.1-8.2 9.2s-8.3-3.7-8.5-9c-.5-23.3-16.2-42.8-38.7-48.1-3.4-.8-7-1.1-10.6-1.3-5.5-.3-9.3-3.6-9.2-8.5s3.9-8.3 9.4-8.2c.4-.1.7-.1 1.1-.1z"/></svg>