<svg enable-background="new 0 0 351 328" viewBox="0 0 351 328" xmlns="http://www.w3.org/2000/svg"><circle cx="175.4" cy="164.8" fill="#fb8a01" r="146.5"/><path d="m245.7 88.6c10.6 10.6 20.3 20.1 29.8 29.9.7.7.5 3 0 4.2-.6 1.4-2.1 2.3-3.2 3.4-44 43.9-88 87.7-131.9 131.7-3.3 3.3-5.1 3.7-8.6.2-21.4-21.7-43-43.1-64.5-64.5-1.1-1.1-2.2-2.3-2.7-2.9 10.4-10.4 20.7-20.7 32-32 1.1 1.4 2.7 3.8 4.6 5.8 10.2 10.4 20.7 20.5 30.9 31 3 3.1 4.9 3 7.9 0 34-34.1 68.1-68.1 102.2-102.2 1.1-1.3 2.1-2.8 3.5-4.6z" fill="#fff"/></svg>